<?xml version="1.0" standalone="no"?>
<!DOCTYPE svg PUBLIC "-//W3C//DTD SVG 20010904//EN"
 "http://www.w3.org/TR/2001/REC-SVG-20010904/DTD/svg10.dtd">
<svg version="1.0" xmlns="http://www.w3.org/2000/svg"
 width="2386.000000pt" height="2386.000000pt" viewBox="0 0 2386.000000 2386.000000"
 preserveAspectRatio="xMidYMid meet">
<metadata>
Created by potrace 1.14, written by Peter Selinger 2001-2017
</metadata>
<g transform="translate(0.000000,2386.000000) scale(0.100000,-0.100000)"
fill="#000000" stroke="none">
<path d="M19260 21523 c0 -8 -16 -12 -49 -10 -27 1 -48 0 -46 -3 2 -3 -8 -10
-21 -17 -13 -6 -22 -7 -19 -3 3 4 -4 6 -15 3 -11 -3 -17 -9 -14 -14 3 -5 -2
-6 -10 -3 -9 3 -16 1 -16 -6 0 -6 -4 -9 -9 -5 -5 3 -12 1 -16 -5 -4 -6 -11 -8
-16 -5 -5 4 -12 -1 -15 -9 -3 -9 -14 -16 -24 -16 -9 0 -25 -9 -35 -20 -10 -11
-24 -20 -32 -20 -8 0 -11 -4 -8 -10 3 -5 -4 -10 -15 -10 -16 0 -20 -4 -16 -16
5 -14 4 -15 -9 -4 -11 9 -15 9 -15 1 0 -7 -5 -9 -10 -6 -6 4 -9 1 -8 -6 2 -7
-4 -13 -12 -14 -8 0 -14 -6 -13 -12 1 -6 -5 -10 -15 -9 -9 0 -16 -4 -15 -11 2
-7 -4 -10 -12 -7 -8 4 -15 2 -15 -4 0 -5 -11 -13 -25 -16 -16 -4 -23 -11 -19
-18 5 -8 1 -9 -12 -4 -10 4 -15 4 -12 0 10 -10 -16 -32 -46 -40 -14 -3 -26
-13 -26 -21 0 -8 -4 -12 -10 -8 -5 3 -18 -3 -30 -15 -11 -11 -23 -20 -27 -21
-5 -1 -7 -5 -5 -11 1 -5 -1 -7 -5 -5 -5 3 -19 -1 -33 -9 -14 -7 -21 -13 -17
-14 13 0 -20 -30 -33 -30 -6 0 -9 -4 -5 -9 5 -9 -32 -27 -48 -23 -5 1 -6 -2
-2 -8 3 -5 -6 -15 -20 -20 -14 -5 -23 -14 -20 -20 3 -6 -1 -7 -10 -4 -11 5
-18 0 -22 -16 -4 -15 -8 -18 -13 -10 -5 9 -10 6 -15 -9 -3 -12 -11 -19 -16
-16 -5 4 -9 1 -9 -5 0 -6 -11 -15 -25 -20 -14 -5 -25 -14 -25 -20 0 -6 -4 -9
-9 -6 -5 3 -12 -1 -15 -9 -3 -8 -11 -14 -18 -13 -7 2 -12 -3 -10 -11 2 -8 -3
-11 -13 -8 -8 4 -15 2 -15 -3 0 -5 -13 -17 -29 -26 -17 -10 -28 -21 -25 -26 3
-4 -1 -5 -9 -2 -8 3 -18 0 -22 -5 -3 -6 -11 -9 -16 -6 -5 3 -6 -2 -2 -11 4
-10 2 -15 -3 -11 -12 7 -67 -27 -58 -36 3 -3 -4 -3 -17 0 -14 4 -20 2 -16 -4
4 -6 -5 -15 -18 -21 -14 -7 -25 -16 -25 -22 0 -5 -7 -10 -16 -10 -9 0 -12 -5
-8 -12 5 -8 0 -7 -11 2 -10 8 -16 10 -12 4 3 -6 -5 -16 -18 -22 -14 -7 -25
-16 -25 -21 0 -6 -7 -7 -17 -4 -11 4 -14 3 -9 -5 4 -7 1 -12 -7 -12 -8 0 -24
-9 -37 -20 -13 -11 -29 -20 -37 -20 -8 0 -11 -4 -8 -10 3 -5 -1 -10 -10 -10
-16 0 -29 -8 -67 -45 -11 -11 -18 -14 -14 -8 5 9 2 11 -8 7 -9 -3 -13 -10 -10
-15 3 -5 -2 -9 -11 -9 -10 0 -13 -5 -9 -12 5 -8 0 -7 -11 2 -10 8 -16 10 -13
4 4 -5 -10 -19 -30 -29 -20 -11 -39 -22 -42 -25 -3 -3 -17 -11 -32 -19 -15 -8
-24 -19 -21 -25 3 -6 3 -8 -2 -4 -4 4 -27 -4 -50 -17 -23 -14 -45 -23 -48 -20
-4 3 -5 2 -2 -2 7 -9 -26 -32 -46 -33 -9 0 -29 -12 -44 -27 -16 -16 -25 -22
-21 -16 5 9 2 11 -8 7 -9 -3 -14 -10 -11 -14 5 -8 -42 -25 -58 -21 -5 1 -6 -3
-2 -9 3 -5 -1 -10 -9 -10 -9 0 -16 -4 -16 -9 0 -5 -13 -12 -29 -16 -16 -3 -32
-13 -35 -22 -4 -9 -9 -13 -12 -10 -9 9 -33 -17 -26 -28 3 -5 -1 -5 -9 2 -12
10 -18 9 -29 -7 -7 -10 -17 -17 -21 -14 -4 2 -14 -2 -22 -10 -8 -8 -17 -12
-21 -9 -3 4 -6 1 -6 -6 0 -7 -5 -9 -10 -6 -6 3 -13 -1 -16 -10 -4 -9 -13 -14
-20 -11 -9 4 -14 -2 -15 -17 0 -21 -1 -21 -9 -2 -5 11 -9 14 -9 7 -1 -7 -5
-10 -11 -7 -5 3 -10 -1 -10 -9 0 -10 -6 -13 -17 -9 -11 4 -14 3 -9 -5 4 -7 1
-12 -8 -12 -9 0 -16 -5 -16 -11 0 -5 -4 -8 -9 -4 -6 3 -20 -5 -32 -17 -12 -13
-18 -17 -14 -9 5 9 -1 7 -19 -4 -14 -10 -26 -22 -26 -27 0 -5 -4 -7 -9 -3 -5
3 -12 1 -16 -5 -4 -6 -10 -8 -15 -5 -4 3 -11 -2 -14 -11 -3 -8 -10 -13 -15
-10 -5 3 -12 -1 -15 -10 -3 -8 -10 -13 -15 -10 -5 3 -12 -1 -15 -10 -4 -9 -13
-14 -22 -10 -8 3 -13 2 -10 -3 3 -5 -6 -12 -19 -15 -14 -4 -23 -10 -20 -15 4
-8 -23 -25 -34 -21 -2 1 -8 -5 -13 -14 -5 -9 -13 -14 -19 -11 -5 4 -9 1 -9 -4
0 -6 -7 -11 -15 -11 -8 0 -15 -5 -15 -11 0 -5 5 -7 12 -3 6 4 8 3 4 -4 -3 -6
-15 -9 -26 -7 -18 4 -25 -6 -21 -29 1 -5 -5 -6 -14 -2 -9 3 -18 -1 -21 -9 -4
-8 -9 -13 -13 -11 -3 2 -12 -2 -19 -10 -7 -8 -9 -14 -5 -15 4 0 -3 -5 -17 -11
-14 -6 -28 -10 -32 -10 -4 1 -5 -5 -2 -13 4 -11 -1 -15 -17 -15 -12 0 -19 -3
-16 -7 11 -10 -32 -35 -46 -27 -8 5 -7 2 2 -9 12 -15 12 -17 -4 -11 -13 5 -16
4 -11 -4 7 -11 -6 -17 -27 -13 -5 1 -6 -3 -3 -8 8 -12 -18 -33 -29 -23 -5 4
-5 1 -1 -5 4 -7 2 -13 -4 -13 -6 0 -8 -4 -5 -10 3 -5 -1 -10 -9 -10 -8 0 -26
-10 -39 -22 -13 -13 -34 -31 -48 -42 -13 -10 -35 -28 -49 -40 -13 -12 -20 -14
-15 -6 6 9 1 6 -10 -6 -31 -34 -73 -57 -87 -48 -10 6 -9 3 1 -9 12 -15 11 -17
-3 -17 -9 0 -16 -5 -16 -11 0 -5 -5 -7 -10 -4 -6 3 -13 -1 -16 -9 -3 -9 -10
-13 -15 -10 -5 3 -9 0 -9 -6 0 -6 -4 -8 -10 -5 -5 3 -10 -1 -10 -9 0 -9 -7
-16 -15 -16 -8 0 -15 -5 -15 -11 0 -6 -7 -8 -16 -5 -9 3 -12 2 -9 -5 4 -6 -2
-13 -14 -16 -11 -3 -18 -9 -15 -14 3 -5 -3 -6 -12 -2 -13 5 -16 2 -11 -9 4
-12 1 -14 -14 -11 -11 3 -19 0 -19 -7 0 -10 -3 -10 -15 0 -12 10 -14 8 -10 -8
3 -15 -1 -18 -21 -14 -13 2 -30 -1 -38 -7 -10 -8 -16 -9 -21 -1 -3 5 -11 10
-16 10 -6 0 -8 -4 -5 -8 3 -5 -1 -9 -9 -9 -8 0 -17 7 -20 16 -6 14 -8 13 -21
-3 -8 -11 -14 -14 -14 -7 0 7 -4 9 -10 6 -5 -3 -10 0 -10 7 0 9 -3 9 -10 -2
-7 -11 -10 -11 -10 -2 0 10 -5 10 -22 1 -17 -9 -20 -9 -15 3 3 8 -1 15 -9 15
-7 0 -10 -5 -7 -10 4 -6 1 -7 -8 -2 -7 5 -20 10 -29 11 -8 2 -30 5 -47 8 -18
3 -47 8 -64 10 -17 3 -38 11 -47 18 -13 11 -15 11 -7 -2 8 -13 7 -13 -8 -1
-14 11 -17 11 -17 0 0 -8 -6 -5 -15 7 -11 14 -14 15 -15 4 0 -13 -1 -13 -10 0
-8 12 -11 13 -19 1 -5 -8 -11 -9 -15 -3 -4 6 -15 9 -26 7 -11 -2 -20 1 -20 6
0 6 -4 8 -9 4 -5 -3 -12 -1 -15 4 -3 4 -19 7 -35 5 -17 -2 -33 1 -36 6 -4 7
-13 7 -24 0 -12 -6 -22 -5 -28 1 -8 8 -13 7 -18 -2 -6 -8 -4 -10 5 -4 9 5 11
4 6 -4 -6 -8 -12 -9 -20 -2 -7 6 -15 8 -18 6 -3 -3 -26 -7 -52 -9 -25 -1 -49
-5 -52 -9 -4 -3 -14 -2 -24 3 -10 5 -20 6 -24 3 -12 -12 -106 -11 -100 1 3 6
-1 3 -9 -7 -11 -14 -16 -15 -20 -5 -3 8 -6 9 -6 1 -1 -6 -10 -9 -23 -5 -16 4
-19 2 -13 -9 8 -12 6 -12 -8 0 -14 11 -20 11 -34 0 -9 -8 -14 -9 -10 -3 4 7
-2 10 -18 6 -14 -2 -25 -8 -25 -12 0 -5 -8 -6 -19 -3 -10 3 -22 0 -25 -6 -4
-5 -14 -7 -23 -4 -11 4 -14 3 -9 -5 5 -8 2 -10 -8 -6 -9 4 -16 1 -16 -6 0 -7
-8 -10 -19 -7 -12 3 -22 -1 -25 -10 -4 -8 -13 -13 -21 -9 -8 3 -15 1 -15 -5 0
-6 -4 -7 -10 -4 -5 3 -10 1 -10 -6 0 -8 -5 -7 -17 2 -11 10 -14 10 -9 2 5 -9
1 -13 -13 -13 -11 0 -22 -4 -25 -9 -3 -5 -17 -8 -32 -8 -14 0 -30 -6 -34 -13
-5 -8 -17 -10 -30 -7 -12 3 -19 3 -16 0 3 -4 1 -12 -5 -20 -9 -10 -15 -10 -25
-2 -11 9 -14 8 -14 0 0 -7 -4 -10 -9 -6 -5 3 -12 1 -16 -5 -3 -5 -11 -10 -16
-10 -6 0 -7 5 -3 11 3 6 -5 3 -20 -6 -14 -10 -26 -14 -26 -10 0 4 -6 2 -13 -4
-8 -6 -17 -8 -20 -4 -4 3 -7 2 -7 -4 0 -6 -9 -13 -21 -16 -15 -4 -19 -2 -15 9
4 11 -1 10 -21 -3 -15 -10 -24 -13 -21 -7 4 6 0 11 -8 11 -9 0 -13 -6 -9 -16
5 -12 2 -11 -14 3 -14 12 -21 14 -26 6 -6 -9 -10 -9 -16 1 -7 12 -9 12 -9 0 0
-11 -3 -11 -17 0 -15 12 -16 12 -8 -1 8 -13 7 -13 -9 -1 -15 13 -19 13 -27 0
-5 -8 -9 -9 -9 -3 0 10 -57 11 -67 0 -4 -3 -13 0 -21 7 -13 9 -14 9 -8 0 4 -8
2 -13 -8 -13 -8 0 -17 6 -19 13 -3 6 -6 3 -6 -8 -1 -17 -3 -17 -11 -5 -5 8
-10 10 -10 4 0 -6 -16 -10 -35 -9 -20 1 -35 -3 -35 -9 0 -6 -4 -5 -9 3 -6 9
-10 10 -16 2 -5 -9 -10 -9 -21 0 -12 10 -15 10 -12 -2 2 -8 -3 -13 -11 -11 -7
1 -20 -3 -29 -10 -13 -11 -14 -11 -7 2 7 13 6 13 -7 2 -13 -10 -17 -10 -21 0
-4 9 -6 10 -6 1 -1 -7 -8 -10 -18 -6 -12 5 -14 3 -9 -8 4 -8 0 -5 -8 5 -9 11
-16 14 -16 7 0 -7 -4 -9 -10 -6 -5 3 -10 2 -10 -4 0 -6 -9 -8 -22 -3 -13 4
-36 7 -51 6 -15 0 -30 3 -33 7 -2 5 -16 4 -29 -1 -18 -7 -25 -6 -25 3 0 8 -4
7 -10 -3 -7 -12 -10 -12 -10 -1 0 7 -6 11 -15 8 -8 -4 -16 -3 -19 1 -5 9 -59
8 -74 -2 -7 -4 -12 -3 -12 1 0 5 -18 9 -40 8 -22 -1 -40 4 -40 9 0 6 -5 4 -10
-4 -7 -10 -10 -11 -10 -2 0 8 -10 11 -31 7 -18 -3 -38 0 -47 7 -13 11 -14 11
-7 -1 6 -11 4 -13 -8 -8 -9 3 -19 2 -23 -4 -4 -6 -11 -6 -20 2 -11 9 -14 8
-14 -2 0 -12 -2 -12 -9 0 -6 9 -11 10 -15 2 -10 -15 -29 -14 -20 2 5 9 4 9 -6
0 -7 -6 -19 -9 -28 -6 -11 5 -13 3 -7 -8 7 -11 6 -12 -7 -2 -8 7 -18 10 -21 6
-4 -3 -7 0 -7 8 -1 9 -4 8 -11 -5 -9 -15 -13 -16 -20 -5 -6 9 -12 10 -16 4 -5
-6 -19 -10 -33 -9 -14 1 -29 -1 -35 -4 -13 -8 -48 -7 -62 1 -6 4 -14 3 -18 -3
-4 -7 -12 -7 -25 0 -11 6 -21 6 -24 1 -3 -5 -16 -7 -28 -3 -15 4 -19 2 -13 -7
6 -10 3 -11 -14 -2 -16 9 -21 9 -21 -1 0 -9 -3 -9 -10 2 -8 12 -10 12 -10 1 0
-10 -3 -11 -14 -2 -11 9 -15 9 -20 -1 -5 -10 -7 -10 -12 -1 -4 10 -9 9 -21 -3
-13 -13 -17 -13 -24 -2 -6 9 -9 9 -9 1 0 -7 -10 -10 -26 -7 -15 3 -23 1 -20
-5 4 -6 -3 -8 -15 -6 -13 3 -29 -1 -38 -8 -12 -10 -13 -9 -6 3 7 12 6 13 -6 3
-8 -7 -44 -15 -80 -17 -82 -7 -120 -15 -136 -28 -9 -7 -13 -7 -13 1 0 8 -6 7
-16 -3 -8 -9 -19 -14 -24 -11 -4 3 -10 -2 -13 -10 -4 -8 -15 -12 -27 -10 -12
2 -20 -1 -20 -10 0 -8 -6 -12 -14 -9 -8 3 -17 0 -21 -5 -3 -6 -11 -9 -16 -6
-5 4 -9 1 -9 -5 0 -6 -5 -8 -10 -5 -6 3 -24 -4 -42 -16 -17 -13 -28 -18 -24
-11 5 8 2 10 -8 6 -9 -3 -14 -10 -11 -14 3 -5 -5 -6 -17 -2 -13 3 -19 1 -15
-5 5 -7 0 -9 -13 -6 -12 3 -22 -1 -26 -10 -3 -9 -12 -13 -20 -10 -8 3 -14 -1
-14 -8 0 -7 -3 -9 -7 -6 -3 4 -13 1 -21 -6 -13 -10 -14 -9 -8 1 7 11 4 11 -13
0 -12 -7 -21 -15 -21 -18 0 -3 -12 -6 -26 -7 -15 0 -30 -6 -34 -13 -4 -6 -10
-11 -14 -11 -3 1 -9 0 -13 0 -5 -1 -15 -2 -23 -3 -8 0 -14 -7 -12 -15 3 -12 0
-12 -12 -1 -14 10 -16 10 -16 -5 0 -14 -3 -15 -15 -5 -11 9 -15 9 -15 1 0 -7
-4 -9 -10 -6 -5 3 -10 1 -10 -5 0 -7 -7 -9 -16 -6 -10 4 -13 2 -8 -6 5 -8 2
-9 -9 -5 -10 4 -17 1 -17 -5 0 -6 -3 -8 -7 -5 -3 4 -12 2 -20 -4 -7 -6 -13 -8
-13 -3 0 5 -4 5 -8 -1 -9 -13 -75 -47 -67 -36 3 5 -13 1 -34 -10 -22 -10 -45
-19 -51 -19 -5 0 -10 -5 -10 -11 0 -5 -4 -8 -9 -4 -5 3 -17 -2 -26 -11 -9 -9
-19 -14 -22 -10 -3 3 -12 -2 -20 -12 -8 -9 -11 -11 -8 -4 6 11 3 11 -16 0 -13
-7 -26 -15 -29 -18 -3 -3 -14 -6 -25 -8 -11 -2 -25 -10 -31 -17 -7 -10 -15
-11 -22 -5 -7 6 -10 7 -7 3 6 -8 -55 -46 -63 -39 -3 3 -11 -2 -19 -12 -9 -10
-12 -11 -7 -2 4 8 -5 4 -19 -9 -18 -16 -27 -20 -27 -11 0 10 -4 9 -12 -3 -7
-10 -24 -19 -38 -22 -14 -3 -26 -9 -28 -15 -2 -5 -10 -10 -18 -10 -8 0 -14 -4
-14 -10 0 -5 -7 -6 -17 -3 -12 5 -14 3 -8 -7 6 -9 4 -12 -6 -8 -16 6 -42 -16
-31 -26 3 -4 -1 -4 -11 0 -9 3 -17 1 -17 -5 0 -6 -7 -8 -17 -4 -12 5 -15 2
-10 -10 3 -9 3 -16 -1 -16 -21 3 -32 -3 -32 -18 0 -15 -2 -16 -10 -3 -6 10
-10 11 -10 3 0 -7 -7 -13 -16 -13 -8 0 -12 -4 -9 -10 3 -5 1 -10 -6 -10 -6 0
-18 -8 -26 -17 -8 -11 -11 -12 -7 -3 7 13 5 13 -9 1 -9 -7 -14 -17 -11 -22 3
-5 -2 -6 -10 -3 -11 4 -16 0 -16 -10 0 -9 -6 -15 -12 -14 -7 2 -12 -3 -10 -9
1 -7 -7 -13 -17 -13 -11 0 -23 -9 -26 -20 -4 -11 -10 -18 -15 -15 -5 3 -14 -4
-20 -15 -6 -11 -15 -18 -21 -15 -5 4 -9 -1 -9 -10 0 -9 -5 -13 -10 -10 -6 3
-10 -1 -10 -10 0 -9 -4 -13 -10 -10 -5 3 -10 -1 -10 -10 0 -11 -5 -15 -14 -12
-11 4 -13 1 -9 -10 4 -10 2 -14 -4 -10 -9 6 -29 -12 -53 -49 -10 -17 -11 -17
-6 -1 3 11 2 15 -4 12 -6 -3 -10 -13 -10 -22 0 -9 -3 -14 -6 -10 -9 9 -44 -25
-37 -36 4 -7 -1 -8 -13 -3 -10 4 -15 4 -11 0 4 -4 1 -14 -6 -22 -10 -13 -9
-15 3 -8 8 4 6 1 -5 -8 -37 -28 -54 -49 -49 -58 3 -5 2 -8 -3 -7 -27 5 -35 -1
-23 -16 11 -13 10 -14 -4 -9 -9 4 -16 2 -14 -4 2 -5 -12 -24 -30 -41 -18 -18
-30 -36 -27 -42 4 -5 3 -9 -2 -8 -27 5 -35 -1 -23 -16 11 -13 10 -14 -4 -9 -9
3 -16 1 -16 -6 0 -6 -4 -8 -10 -5 -5 3 -10 -1 -10 -9 0 -8 -6 -19 -14 -23 -16
-10 -41 -54 -38 -67 2 -5 -5 -3 -15 4 -10 8 -15 11 -11 6 3 -4 -2 -16 -13 -27
-11 -11 -17 -25 -13 -31 5 -8 2 -9 -9 -5 -11 4 -17 1 -17 -8 0 -9 -9 -23 -20
-32 -11 -10 -20 -21 -20 -25 0 -4 -16 -24 -36 -44 -21 -22 -33 -43 -29 -52 5
-13 3 -13 -12 -1 -11 9 -14 10 -9 2 4 -8 2 -13 -5 -13 -7 0 -10 -3 -6 -6 7 -8
-35 -50 -47 -46 -5 2 -3 -5 5 -14 8 -10 9 -15 2 -11 -7 5 -19 -3 -30 -20 -10
-15 -23 -32 -30 -36 -8 -5 -11 -12 -8 -17 3 -4 -2 -11 -11 -14 -8 -3 -12 -11
-8 -17 4 -7 3 -9 -3 -6 -6 4 -17 -1 -24 -10 -12 -14 -12 -16 1 -8 8 5 3 -4
-13 -20 -15 -15 -27 -32 -27 -37 0 -5 -5 -6 -12 -2 -7 4 -8 3 -4 -4 4 -6 -4
-22 -16 -34 -13 -13 -23 -27 -23 -31 0 -4 -7 -12 -15 -17 -8 -5 -12 -10 -8
-10 4 0 0 -9 -9 -19 -9 -11 -20 -18 -25 -15 -5 3 -7 2 -6 -3 4 -17 -14 -53
-24 -47 -7 5 -9 0 -6 -14 4 -12 1 -25 -4 -29 -7 -4 -8 -1 -4 8 4 8 0 5 -8 -5
-9 -11 -16 -24 -16 -29 0 -4 -5 -5 -10 -2 -6 4 -10 3 -9 -2 4 -24 -3 -43 -17
-43 -8 0 -12 -4 -9 -10 3 -5 0 -10 -7 -10 -11 0 -10 -2 0 -9 11 -7 11 -9 -1
-14 -8 -3 -25 -27 -38 -54 -13 -26 -28 -51 -34 -55 -7 -5 -7 -8 0 -8 6 0 1 -7
-9 -15 -11 -8 -16 -15 -12 -15 5 0 3 -7 -4 -15 -6 -8 -9 -18 -6 -24 3 -5 -1
-12 -9 -15 -8 -3 -14 -9 -13 -13 4 -16 -14 -53 -23 -47 -5 3 -9 2 -8 -3 4 -22
-2 -34 -13 -27 -10 6 -10 5 -1 -7 10 -12 9 -18 -7 -29 -16 -11 -17 -17 -7 -29
8 -10 8 -13 0 -8 -7 4 -15 -5 -22 -23 -5 -17 -15 -30 -22 -30 -7 0 -10 -3 -6
-6 3 -3 -3 -22 -14 -41 -11 -19 -17 -39 -13 -44 3 -5 0 -8 -6 -7 -7 2 -14 -5
-15 -15 -5 -26 -25 -48 -39 -40 -6 4 -5 -1 3 -11 13 -15 13 -19 0 -26 -8 -5
-14 -15 -14 -22 -1 -7 -6 -12 -12 -11 -6 1 -10 -8 -9 -21 2 -14 -5 -31 -16
-40 -10 -9 -16 -20 -13 -25 2 -5 -2 -11 -10 -15 -8 -3 -15 -15 -15 -26 0 -11
-4 -20 -10 -20 -5 0 -10 -7 -10 -15 0 -9 -7 -18 -15 -21 -8 -4 -12 -10 -9 -15
3 -5 0 -9 -6 -9 -7 0 -10 -5 -8 -12 2 -6 -4 -20 -14 -30 -10 -10 -16 -23 -13
-28 4 -6 -1 -10 -10 -10 -9 0 -13 -5 -10 -10 3 -6 -1 -13 -10 -16 -13 -5 -13
-9 -3 -22 7 -9 9 -13 3 -10 -5 3 -16 0 -23 -8 -7 -8 -9 -14 -5 -14 4 0 -3 -10
-17 -21 -14 -11 -19 -17 -11 -13 8 4 0 -14 -18 -40 -18 -25 -29 -51 -26 -56 4
-6 3 -10 -2 -9 -20 3 -27 -2 -13 -11 12 -8 11 -10 -6 -10 -17 0 -21 -5 -19
-24 2 -18 -1 -23 -11 -19 -9 3 -14 -2 -14 -15 0 -11 -6 -27 -13 -34 -8 -7 -13
-21 -11 -30 1 -11 -3 -15 -12 -11 -8 3 -14 2 -13 -3 4 -19 -42 -104 -53 -98
-6 4 -8 3 -4 -4 3 -6 0 -16 -7 -24 -8 -7 -12 -19 -9 -26 2 -6 -2 -12 -8 -12
-7 0 -10 -7 -6 -16 3 -8 2 -12 -4 -9 -5 3 -16 -7 -22 -22 -7 -15 -20 -34 -28
-41 -13 -12 -13 -13 0 -7 12 5 12 4 -1 -7 -9 -7 -14 -19 -12 -25 3 -7 -2 -16
-11 -19 -9 -3 -13 -10 -10 -15 3 -5 -2 -9 -12 -9 -14 0 -15 -2 -3 -17 8 -9 10
-14 4 -11 -12 7 -37 -17 -28 -26 4 -3 1 -6 -6 -6 -7 0 -9 -4 -6 -10 3 -5 1
-10 -5 -10 -6 0 -8 -4 -5 -10 3 -5 1 -10 -5 -10 -6 0 -8 -4 -5 -10 3 -5 -2
-10 -12 -10 -15 0 -16 -2 -3 -10 13 -8 12 -10 -4 -10 -16 0 -17 -2 -5 -17 10
-11 10 -14 1 -9 -7 4 -12 2 -12 -4 0 -6 -5 -8 -12 -4 -10 6 -10 4 0 -8 10 -13
10 -17 -4 -22 -9 -3 -14 -13 -11 -21 4 -10 1 -12 -10 -8 -13 5 -14 3 -3 -18
13 -23 12 -23 -5 -9 -10 8 -16 10 -12 3 4 -6 0 -19 -9 -27 -11 -11 -12 -16 -3
-16 7 0 4 -6 -7 -15 -10 -8 -15 -15 -11 -15 5 0 1 -7 -7 -16 -9 -8 -14 -19
-12 -23 3 -4 -4 -14 -15 -21 -21 -16 -27 -36 -6 -24 6 4 4 -2 -5 -13 -10 -11
-18 -25 -18 -31 0 -7 -4 -12 -9 -12 -5 0 -12 -11 -15 -25 -4 -14 -11 -25 -17
-25 -8 0 -7 -6 2 -17 7 -10 10 -15 5 -11 -4 4 -14 1 -21 -5 -10 -9 -10 -15 -1
-26 8 -12 8 -13 -1 -7 -12 7 -18 -5 -14 -27 1 -5 -3 -6 -8 -3 -5 4 -12 2 -16
-4 -3 -5 -1 -10 5 -10 6 0 8 -5 5 -10 -4 -6 -11 -8 -16 -4 -5 3 -9 2 -8 -3 4
-16 -13 -63 -23 -63 -5 0 -8 -6 -6 -12 3 -7 -1 -19 -9 -26 -7 -8 -11 -18 -8
-23 4 -5 1 -9 -5 -9 -6 0 -9 -4 -5 -9 3 -5 1 -12 -5 -16 -5 -3 -10 -16 -10
-28 0 -18 -2 -19 -10 -7 -8 12 -10 11 -10 -7 0 -12 -7 -28 -15 -37 -18 -18
-20 -30 -2 -20 6 4 4 -2 -5 -13 -10 -11 -18 -25 -18 -31 0 -7 -4 -12 -10 -12
-5 0 -10 -6 -10 -13 0 -21 -24 -67 -35 -67 -5 0 -3 -5 5 -10 13 -8 13 -10 -1
-10 -10 0 -16 -7 -15 -17 0 -10 -4 -17 -10 -16 -6 1 -10 -11 -9 -27 1 -16 -2
-27 -7 -24 -4 3 -8 0 -8 -6 0 -6 -4 -8 -10 -5 -6 4 -7 -1 -3 -11 5 -13 3 -15
-8 -9 -12 8 -12 6 0 -8 9 -12 10 -17 2 -17 -7 0 -9 -4 -6 -10 3 -5 1 -10 -6
-10 -7 0 -9 -3 -6 -7 4 -3 -1 -12 -11 -20 -9 -8 -11 -12 -5 -8 9 4 11 1 7 -9
-3 -9 -10 -14 -15 -11 -4 3 -6 -4 -4 -15 2 -11 -1 -20 -7 -20 -6 0 -9 -3 -5
-6 3 -4 0 -13 -8 -21 -8 -8 -15 -23 -15 -34 0 -11 -7 -22 -15 -25 -8 -4 -13
-10 -10 -14 7 -11 -15 -60 -27 -60 -4 0 -8 -11 -8 -25 0 -14 -5 -25 -11 -25
-6 0 -9 -7 -5 -15 3 -8 1 -15 -4 -15 -6 0 -10 -7 -10 -15 0 -8 -6 -15 -12 -15
-10 0 -10 -2 0 -9 11 -6 10 -10 -3 -15 -10 -3 -15 -12 -11 -21 3 -8 1 -15 -5
-15 -6 0 -7 -5 -4 -10 3 -6 0 -13 -9 -16 -8 -3 -13 -14 -11 -25 2 -10 1 -19
-3 -19 -12 0 -34 -59 -26 -71 4 -7 3 -9 -3 -6 -6 4 -13 -6 -17 -24 -3 -17 -10
-28 -14 -25 -5 3 -7 -6 -4 -21 4 -20 2 -24 -8 -18 -10 6 -12 4 -7 -8 3 -9 -3
-28 -16 -43 -17 -22 -18 -27 -5 -21 12 4 15 2 11 -8 -3 -8 -9 -12 -14 -9 -5 3
-9 -3 -9 -13 0 -11 -6 -25 -12 -32 -11 -11 -10 -12 2 -6 13 8 13 6 2 -8 -8 -9
-11 -21 -7 -27 3 -5 1 -10 -5 -10 -6 0 -8 -5 -5 -10 4 -6 3 -16 -2 -23 -5 -7
-9 -27 -9 -45 1 -22 -3 -31 -12 -27 -10 3 -10 0 -1 -16 8 -16 8 -23 -1 -29
-17 -10 -17 -15 -1 -34 11 -14 12 -17 1 -14 -9 2 -13 -9 -13 -37 0 -22 -4 -43
-11 -47 -7 -5 -7 -8 3 -8 11 0 11 -3 0 -17 -12 -15 -12 -16 1 -8 13 8 13 6 2
-8 -8 -9 -11 -21 -7 -27 3 -5 2 -10 -3 -10 -5 0 -8 -13 -6 -30 2 -19 -1 -30
-9 -30 -8 0 -7 -4 3 -10 13 -9 13 -10 0 -10 -13 0 -13 -1 0 -10 8 -5 11 -10 5
-10 -5 0 -11 -20 -12 -45 0 -25 -7 -53 -15 -62 -8 -10 -8 -14 -1 -10 6 4 14 3
18 -3 3 -5 2 -10 -4 -10 -5 0 -8 -12 -5 -26 3 -14 1 -23 -3 -21 -5 3 -8 -7 -7
-21 1 -15 3 -27 4 -27 1 0 3 -8 5 -17 2 -10 -1 -18 -6 -18 -6 0 -7 -6 -3 -12
11 -17 13 -48 3 -42 -4 2 -10 0 -14 -6 -3 -5 1 -10 10 -10 13 0 14 -4 4 -21
-8 -16 -8 -20 1 -14 9 6 9 2 0 -15 -10 -18 -9 -24 1 -31 11 -7 11 -9 1 -9 -9
0 -10 -5 -4 -17 5 -10 6 -27 2 -38 -4 -11 -3 -26 2 -32 7 -9 7 -13 -2 -13 -9
0 -9 -4 -2 -13 6 -7 7 -18 2 -26 -5 -9 -3 -22 3 -32 9 -14 9 -21 -1 -31 -6 -6
-12 -17 -12 -22 0 -6 5 -4 10 4 8 12 10 10 10 -10 0 -15 6 -32 12 -39 10 -11
10 -13 1 -7 -16 9 -17 -6 -1 -22 9 -9 9 -12 -1 -12 -7 0 -9 -5 -6 -10 4 -6 9
-22 11 -37 3 -15 11 -34 17 -42 9 -11 9 -13 0 -8 -8 5 -8 1 0 -17 7 -13 16
-22 21 -19 5 4 7 -1 3 -10 -4 -12 -1 -17 11 -18 11 0 12 -2 4 -6 -9 -3 -7 -10
9 -24 13 -11 17 -19 9 -19 -8 0 -4 -8 8 -19 12 -10 19 -21 15 -25 -3 -3 -1 -6
6 -6 8 0 11 -8 8 -20 -3 -11 2 -25 12 -32 15 -12 15 -11 1 7 -14 19 -14 19 3
6 14 -11 15 -16 5 -29 -10 -13 -10 -14 0 -8 7 4 12 1 12 -8 0 -9 4 -16 9 -16
5 0 15 -16 22 -34 7 -19 17 -32 22 -29 5 3 6 -4 2 -17 -5 -15 -4 -20 4 -16 6
4 11 0 11 -9 0 -9 4 -13 10 -10 6 3 7 -1 4 -9 -3 -9 -2 -16 3 -16 10 0 11 -4
16 -52 2 -16 7 -31 12 -35 4 -5 5 -2 0 6 -6 10 -4 12 4 7 9 -6 9 -12 -3 -25
-9 -10 -13 -22 -9 -26 5 -5 0 -3 -10 4 -16 13 -19 12 -24 -7 -3 -12 -9 -20
-13 -17 -11 7 -61 -21 -53 -29 4 -4 0 -4 -10 0 -10 4 -17 1 -17 -6 0 -9 -4 -9
-17 1 -9 8 -14 10 -11 4 3 -5 -4 -19 -15 -30 -11 -11 -17 -14 -13 -7 4 6 2 12
-3 12 -6 0 -11 -4 -11 -9 0 -5 -16 -12 -35 -15 -19 -4 -35 -11 -35 -17 0 -6
-4 -7 -10 -4 -5 3 -10 1 -10 -4 0 -6 -9 -11 -20 -11 -11 0 -23 -7 -26 -15 -4
-8 -10 -12 -15 -9 -5 3 -9 0 -9 -6 0 -6 -5 -8 -10 -5 -6 3 -13 -1 -16 -9 -3
-9 -14 -16 -24 -16 -10 0 -20 -7 -24 -15 -3 -9 -12 -12 -22 -8 -11 4 -15 2
-11 -4 7 -10 -56 -46 -80 -46 -6 0 -8 -7 -5 -15 4 -11 1 -14 -11 -9 -9 3 -17
2 -17 -3 0 -6 -5 -10 -11 -10 -6 0 -19 -10 -30 -22 -17 -21 -18 -21 -12 -3 l6
20 -20 -20 c-11 -11 -19 -23 -16 -27 2 -4 -3 -5 -11 -2 -9 4 -18 -1 -22 -10
-3 -9 -10 -13 -15 -11 -4 3 -17 -3 -29 -15 -11 -11 -27 -20 -36 -20 -10 0 -14
-6 -11 -14 4 -11 1 -13 -10 -9 -11 4 -14 2 -9 -5 5 -8 1 -10 -10 -5 -12 4 -15
3 -10 -5 4 -7 2 -12 -5 -12 -6 0 -18 -8 -26 -17 -8 -11 -11 -12 -7 -3 7 13 5
13 -9 1 -9 -7 -14 -18 -10 -24 3 -6 1 -7 -5 -3 -6 4 -22 -4 -34 -16 -13 -13
-27 -22 -31 -20 -4 1 -10 -5 -14 -14 -3 -8 -16 -20 -29 -25 -13 -4 -24 -15
-24 -24 0 -8 -7 -15 -16 -15 -8 0 -13 -4 -9 -9 7 -12 -29 -33 -40 -23 -5 4 -5
-1 -2 -10 4 -10 2 -18 -4 -18 -6 0 -17 -6 -24 -12 -37 -34 -46 -39 -57 -32 -7
4 -8 3 -4 -5 4 -6 0 -18 -8 -27 -9 -8 -16 -13 -16 -10 0 3 -10 -4 -22 -16 -13
-13 -22 -27 -20 -31 1 -5 -2 -6 -7 -3 -13 9 -62 -34 -54 -47 3 -7 3 -9 -1 -5
-5 4 -21 -6 -36 -22 -15 -16 -31 -26 -34 -23 -3 4 -6 2 -6 -4 0 -6 -19 -30
-42 -54 -23 -24 -38 -38 -33 -30 5 9 4 12 -3 7 -6 -3 -9 -15 -7 -26 2 -12 0
-18 -6 -14 -6 3 -35 -19 -64 -49 -30 -30 -57 -52 -61 -49 -5 4 -2 -2 6 -12 9
-12 10 -17 3 -12 -8 4 -23 -4 -39 -21 -15 -15 -31 -27 -36 -25 -5 1 -7 -2 -4
-7 4 -5 0 -16 -8 -24 -8 -8 -12 -18 -8 -21 3 -4 -1 -4 -9 -1 -11 4 -21 -4 -32
-27 -9 -18 -17 -26 -17 -18 -1 9 -5 5 -11 -8 -5 -13 -13 -20 -19 -17 -5 3 -10
1 -10 -5 0 -6 -13 -24 -29 -39 -16 -16 -27 -32 -24 -35 4 -3 -1 -6 -10 -6 -9
0 -20 -8 -26 -17 -5 -10 -13 -18 -18 -18 -4 0 -8 -6 -10 -14 -1 -7 -7 -19 -14
-25 -9 -8 -10 -7 -5 4 4 8 1 7 -7 -3 -9 -10 -24 -25 -34 -34 -10 -8 -12 -11
-4 -7 9 5 12 3 7 -4 -4 -7 -13 -12 -21 -12 -7 0 -16 -7 -19 -16 -3 -8 -11 -12
-17 -8 -8 4 -9 3 -5 -4 4 -7 2 -12 -3 -12 -6 0 -10 -6 -8 -13 1 -6 -3 -11 -10
-10 -6 2 -15 -6 -18 -17 -4 -11 -11 -18 -16 -15 -5 4 -9 -1 -9 -9 0 -9 -7 -16
-15 -16 -8 0 -15 -6 -15 -14 0 -8 -12 -24 -27 -36 -16 -12 -22 -19 -15 -15 6
3 12 1 12 -4 0 -6 -4 -11 -10 -11 -15 0 -49 -37 -42 -46 4 -4 -1 -4 -10 -1
-11 4 -15 2 -12 -7 3 -7 -2 -16 -10 -19 -9 -4 -16 -14 -16 -22 0 -9 -5 -13
-10 -10 -6 3 -14 -3 -18 -15 -4 -12 -12 -21 -17 -21 -6 1 -10 -4 -10 -10 0 -6
-11 -17 -25 -24 -14 -8 -21 -14 -17 -15 18 0 -16 -40 -35 -40 -17 0 -18 -2 -8
-15 11 -13 10 -14 -2 -10 -8 3 -21 -1 -28 -10 -11 -13 -10 -15 6 -9 10 3 6 -3
-11 -13 -16 -11 -36 -32 -44 -46 -8 -15 -21 -27 -29 -27 -9 0 -12 -3 -9 -6 4
-4 -3 -15 -14 -25 -11 -9 -20 -21 -21 -26 0 -4 -4 -7 -9 -6 -5 2 -9 -2 -9 -9
0 -6 -18 -28 -40 -49 -21 -20 -36 -39 -33 -43 4 -3 -2 -6 -11 -6 -12 0 -16 -5
-12 -16 3 -8 2 -13 -3 -10 -4 3 -18 -8 -30 -25 -12 -16 -26 -27 -31 -24 -6 4
-7 -1 -3 -11 5 -14 3 -16 -11 -11 -9 4 -15 3 -11 -2 3 -5 -1 -12 -7 -14 -9 -4
-9 -6 2 -6 10 -1 7 -6 -8 -17 -12 -8 -20 -20 -17 -25 4 -5 -2 -6 -11 -2 -14 5
-16 3 -11 -11 4 -9 3 -15 -2 -11 -6 3 -18 -8 -27 -24 -10 -17 -21 -28 -26 -25
-7 5 -12 -10 -9 -29 1 -5 -3 -6 -9 -2 -5 3 -10 1 -10 -5 0 -6 -4 -8 -10 -5 -6
4 -7 -1 -3 -12 3 -10 3 -15 -1 -11 -8 7 -51 -27 -51 -40 0 -12 -50 -57 -59
-54 -5 2 -3 -5 5 -14 8 -10 9 -15 3 -11 -7 4 -19 -4 -29 -19 -9 -15 -22 -23
-31 -20 -7 3 -13 2 -13 -2 3 -20 -2 -32 -12 -27 -6 4 -9 0 -7 -11 2 -14 -2
-18 -17 -16 -11 2 -17 1 -14 -3 8 -7 -31 -52 -45 -53 -5 0 -16 -15 -24 -32 -8
-17 -17 -29 -19 -26 -2 2 -26 -18 -53 -44 -26 -27 -51 -46 -55 -42 -4 4 -6 2
-5 -3 5 -22 -1 -35 -12 -32 -7 1 -12 -4 -10 -12 2 -8 -3 -11 -12 -8 -9 4 -17
-1 -21 -14 -4 -10 -10 -17 -14 -15 -4 3 -13 -4 -21 -14 -8 -10 -17 -17 -22
-14 -4 3 -8 -2 -8 -11 0 -9 -4 -13 -10 -10 -5 3 -10 -1 -10 -10 0 -9 -3 -14
-7 -12 -10 5 -43 -30 -35 -37 3 -3 0 -6 -7 -6 -7 0 -10 -4 -7 -9 3 -5 -1 -12
-10 -15 -8 -3 -12 -10 -9 -16 3 -5 2 -10 -4 -10 -5 0 -13 -10 -17 -22 -4 -13
-16 -31 -27 -40 -11 -10 -15 -18 -9 -18 6 0 1 -10 -11 -23 -12 -13 -25 -22
-29 -20 -5 2 -8 -3 -8 -12 0 -9 -4 -14 -9 -11 -5 3 -11 -1 -15 -9 -3 -8 -13
-15 -23 -15 -15 0 -16 -2 -3 -10 13 -8 12 -10 -5 -11 -11 -1 -23 -1 -27 0 -4
0 -10 -9 -13 -20 -6 -17 -9 -18 -23 -7 -13 11 -14 11 -8 0 5 -9 1 -15 -13 -19
-12 -3 -21 -9 -21 -14 0 -5 -5 -9 -11 -9 -5 0 -7 6 -4 12 4 7 -3 2 -15 -12
-12 -14 -18 -18 -14 -10 7 13 5 13 -9 2 -9 -8 -22 -10 -28 -6 -8 4 -9 3 -5 -4
6 -11 -6 -16 -26 -13 -5 0 -8 -4 -8 -11 0 -6 -3 -8 -7 -5 -3 4 -12 2 -18 -3
-7 -6 -24 -11 -38 -12 -14 -1 -23 -6 -21 -10 3 -4 -4 -8 -15 -8 -12 0 -21 -5
-21 -11 0 -6 -7 -8 -15 -5 -9 3 -18 0 -21 -8 -3 -7 -15 -13 -27 -12 -12 1 -28
-5 -35 -14 -12 -13 -13 -13 -7 0 4 8 -1 6 -10 -5 -9 -11 -19 -20 -23 -19 -21
3 -43 -10 -38 -23 3 -8 2 -11 -3 -8 -12 7 -61 -15 -61 -28 0 -5 -6 -7 -13 -4
-8 3 -20 -3 -27 -13 -8 -11 -18 -16 -24 -13 -5 4 -7 -1 -2 -12 5 -14 4 -15 -7
-7 -10 9 -16 7 -27 -7 -7 -11 -19 -17 -26 -14 -7 2 -15 -5 -19 -18 -6 -17 -9
-19 -16 -8 -7 11 -9 10 -9 -4 0 -10 -5 -15 -11 -12 -5 4 -18 -3 -29 -15 -10
-11 -27 -22 -39 -23 -16 -1 -18 -4 -8 -17 6 -8 8 -12 3 -8 -5 4 -18 2 -30 -4
-11 -7 -25 -11 -31 -9 -5 1 -7 0 -3 -4 7 -7 -43 -55 -57 -55 -4 0 -14 -8 -22
-18 -10 -11 -12 -12 -8 -2 3 8 -8 -1 -26 -20 -17 -19 -28 -28 -23 -20 7 13 5
13 -9 1 -9 -7 -17 -21 -17 -30 0 -13 -2 -13 -9 -2 -6 9 -11 10 -15 2 -4 -6 -4
-11 1 -11 4 -1 -3 -7 -17 -14 -14 -8 -29 -12 -35 -9 -5 4 -7 3 -3 -2 8 -9 -15
-35 -32 -35 -6 0 -8 -4 -5 -10 6 -9 -8 -14 -28 -11 -5 1 -6 -3 -3 -8 3 -5 -1
-14 -9 -21 -8 -7 -15 -9 -15 -4 0 5 -5 1 -11 -8 -5 -10 -17 -18 -26 -18 -10 0
-13 -6 -9 -16 3 -8 2 -12 -4 -9 -5 3 -18 -3 -28 -13 -10 -10 -26 -21 -35 -25
-9 -3 -17 -11 -17 -17 0 -5 -7 -10 -15 -10 -9 0 -12 -6 -8 -17 3 -10 3 -15 -2
-11 -4 4 -22 -9 -40 -28 -18 -18 -35 -34 -39 -34 -4 0 -18 -12 -31 -26 -14
-15 -29 -23 -36 -18 -8 4 -9 3 -5 -4 4 -7 2 -12 -4 -12 -6 0 -8 -5 -4 -12 4
-6 3 -8 -3 -5 -12 8 -54 -38 -45 -49 4 -4 -1 -4 -11 -1 -13 5 -17 2 -15 -10 2
-9 -5 -17 -15 -18 -11 -2 -15 1 -10 8 4 7 -1 6 -10 -2 -9 -7 -17 -9 -17 -5 0
5 -26 9 -57 9 -32 0 -61 5 -65 10 -5 6 -8 6 -8 -1 0 -8 -11 -9 -35 -4 -24 5
-35 4 -35 -4 0 -6 -5 -4 -10 4 -8 12 -10 12 -10 1 0 -11 -3 -11 -15 -1 -8 7
-15 9 -15 4 0 -7 -257 -10 -280 -3 -20 5 -46 2 -52 -6 -5 -6 -8 -6 -8 1 0 7
-11 9 -25 6 -14 -2 -33 2 -42 9 -12 10 -15 10 -9 1 6 -10 -4 -12 -41 -9 -26 1
-54 6 -62 11 -10 7 -12 5 -6 -3 5 -10 -2 -12 -29 -8 -23 3 -36 1 -36 -7 0 -6
-4 -4 -10 4 -5 8 -12 11 -16 7 -4 -4 -14 -1 -22 6 -10 7 -13 8 -9 1 4 -7 -2
-11 -18 -11 -14 0 -23 3 -20 7 5 8 -44 5 -52 -4 -4 -3 -13 0 -21 7 -13 9 -14
9 -8 0 4 -7 2 -13 -3 -13 -6 0 -11 5 -11 11 0 8 -5 8 -15 -1 -11 -9 -15 -9
-15 -1 0 9 -5 9 -20 1 -15 -8 -20 -8 -20 1 0 8 -4 8 -15 -1 -10 -9 -15 -9 -15
-1 0 6 -5 11 -11 11 -5 0 -7 -6 -3 -12 5 -8 0 -7 -11 2 -10 8 -21 13 -24 11
-20 -12 -51 -20 -46 -11 7 12 -23 9 -44 -4 -9 -6 -12 -5 -8 1 4 6 -6 10 -24
11 -20 0 -27 -3 -22 -11 5 -9 3 -9 -8 0 -8 6 -24 11 -34 9 -11 -2 -32 1 -48 5
-18 5 -25 4 -21 -3 4 -6 1 -8 -7 -6 -8 3 -13 12 -11 19 2 11 -1 10 -10 -1 -12
-15 -63 -18 -95 -5 -7 2 -13 1 -13 -3 0 -6 -29 -7 -73 -3 -5 1 -5 7 -1 14 6 9
4 9 -7 1 -26 -20 -49 -24 -42 -8 4 10 0 12 -11 8 -15 -6 -16 -280 -16 -3295
l0 -3289 11930 0 11930 0 0 3304 c0 1818 -4 3307 -8 3310 -4 2 -14 1 -22 -4
-9 -5 -19 -5 -27 2 -9 7 -13 7 -13 -2 0 -7 -6 -10 -14 -7 -7 3 -18 1 -24 -5
-6 -6 -12 -6 -16 1 -4 6 -12 11 -17 11 -6 0 -7 -5 -4 -10 8 -13 -17 -9 -27 4
-4 6 -13 4 -22 -3 -9 -8 -16 -9 -16 -4 0 10 -60 10 -78 -1 -7 -4 -12 -3 -12 1
0 5 -9 9 -19 9 -11 0 -17 -4 -15 -8 3 -4 0 -8 -5 -8 -6 0 -11 5 -11 10 0 7 -7
7 -21 -1 -16 -8 -20 -8 -14 1 6 9 2 9 -14 1 -15 -8 -21 -9 -21 -1 0 6 -5 8
-12 4 -19 -12 -48 -12 -48 -1 0 5 -7 4 -15 -3 -8 -7 -15 -9 -15 -5 0 4 -7 2
-15 -5 -13 -11 -14 -10 -9 5 6 15 4 16 -14 6 -17 -9 -22 -9 -22 1 0 6 -6 4
-13 -7 -11 -14 -16 -15 -22 -5 -6 9 -4 11 6 5 8 -5 10 -4 6 0 -14 16 -39 14
-33 -2 5 -12 4 -13 -7 -5 -8 7 -17 9 -21 5 -4 -4 -11 -1 -17 7 -8 13 -10 13
-19 0 -8 -12 -12 -13 -19 -2 -6 11 -11 10 -25 -3 -11 -11 -16 -12 -16 -4 0 7
-7 5 -16 -7 -8 -10 -13 -14 -10 -8 3 7 -1 15 -10 18 -9 4 -13 2 -8 -5 4 -8 -1
-9 -16 -4 -15 5 -20 4 -16 -4 5 -7 1 -9 -8 -5 -9 3 -14 10 -11 14 3 5 -8 5
-25 0 -24 -7 -32 -6 -37 6 -5 13 -7 13 -14 2 -7 -11 -9 -11 -9 1 0 11 -3 11
-15 1 -10 -9 -15 -9 -15 -1 0 6 -5 11 -11 11 -5 0 -7 -4 -4 -10 3 -5 1 -10 -4
-10 -6 0 -11 5 -11 11 0 8 -4 8 -12 2 -21 -15 -81 -16 -72 -1 4 7 4 10 0 7 -4
-4 -22 -3 -41 1 -22 5 -35 4 -38 -3 -2 -6 -13 -11 -25 -12 -11 -1 -19 2 -16 7
3 4 -2 5 -10 2 -9 -3 -13 -11 -9 -18 3 -6 1 -6 -8 1 -17 17 -32 17 -23 0 4 -6
-3 -3 -16 8 -13 11 -20 14 -16 8 4 -7 2 -13 -3 -13 -6 0 -11 5 -11 11 0 8 -4
8 -14 0 -11 -9 -16 -9 -21 0 -6 8 -10 7 -16 -2 -7 -12 -9 -12 -9 0 0 10 -3 11
-14 2 -11 -9 -16 -9 -22 0 -5 8 -3 9 6 4 9 -6 11 -4 5 5 -6 10 -11 9 -22 -5
-7 -11 -13 -14 -13 -8 0 5 -12 10 -27 9 -16 -1 -42 2 -60 5 -25 5 -33 3 -36
-10 -4 -12 -5 -11 -6 4 -1 17 -3 18 -11 5 -8 -12 -11 -13 -19 -1 -7 11 -9 11
-14 0 -4 -10 -6 -8 -6 4 -1 17 -2 17 -17 2 -15 -14 -17 -14 -30 2 -13 17 -14
17 -7 -2 6 -18 5 -18 -10 -6 -14 11 -18 11 -23 -2 -3 -9 -12 -13 -21 -10 -11
4 -14 2 -9 -5 4 -7 -2 -9 -21 -5 -16 3 -36 5 -46 5 -9 0 -15 4 -11 9 3 5 -7 9
-23 8 -15 0 -38 2 -50 6 -16 5 -23 3 -23 -5 0 -10 -3 -10 -15 0 -12 10 -15 10
-15 0 0 -7 -7 -10 -16 -6 -8 3 -12 2 -9 -4 3 -6 1 -10 -4 -10 -6 0 -11 6 -11
13 0 8 -4 7 -10 -3 -8 -12 -10 -12 -10 -1 0 9 -4 10 -12 3 -8 -5 -22 -6 -33
-1 -26 10 -37 11 -31 1 2 -4 -4 -8 -15 -8 -10 0 -19 4 -19 8 0 5 -9 4 -20 -2
-14 -8 -20 -8 -20 0 0 6 -5 8 -12 3 -21 -12 -38 -12 -38 0 0 7 -5 5 -10 -3 -9
-13 -10 -13 -10 0 0 13 -1 13 -10 0 -9 -13 -10 -13 -10 0 0 13 -1 13 -10 0 -9
-13 -10 -13 -10 0 0 13 -1 13 -10 0 -8 -12 -10 -12 -10 -1 0 11 -3 11 -15 1
-11 -9 -15 -9 -15 -1 0 9 -5 9 -20 1 -15 -8 -20 -8 -20 1 0 9 -3 9 -14 0 -10
-8 -16 -9 -21 -1 -4 7 -12 7 -26 0 -14 -8 -19 -7 -19 1 0 9 -3 9 -14 0 -11 -9
-15 -9 -18 0 -3 9 -9 9 -26 0 -17 -9 -22 -9 -22 0 0 9 -3 9 -14 0 -10 -9 -15
-9 -18 -1 -2 8 -11 8 -31 1 -20 -8 -27 -7 -27 2 0 8 -4 7 -10 -3 -9 -13 -10
-13 -10 0 0 13 -1 13 -10 0 -9 -13 -10 -13 -10 0 0 13 -1 13 -10 0 -9 -13 -10
-13 -10 0 0 13 -1 13 -10 0 -5 -8 -10 -10 -10 -4 0 9 -32 11 -50 4 -15 -7 -78
-4 -94 3 -15 8 -18 6 -13 -7 6 -14 3 -15 -13 -6 -11 6 -20 7 -20 3 0 -4 -5 -1
-10 7 -5 8 -10 10 -10 4 0 -7 -14 -10 -36 -7 -27 3 -34 1 -28 -9 6 -10 4 -10
-7 -2 -8 5 -24 9 -36 8 -13 0 -23 4 -23 10 0 8 -3 8 -8 0 -9 -13 -105 -13
-114 0 -5 7 -8 4 -8 -7 0 -15 -3 -16 -20 -7 -15 8 -20 8 -20 -2 0 -9 -3 -9
-10 2 -7 11 -10 11 -10 2 0 -7 -5 -10 -10 -7 -16 10 -90 13 -85 5 7 -11 -37 0
-53 13 -9 7 -11 6 -6 -6 5 -14 1 -15 -25 -7 -17 5 -31 6 -31 2 0 -4 -34 -6
-75 -5 -52 2 -75 -1 -75 -9 0 -7 -7 -3 -15 8 -8 10 -15 14 -15 9 0 -6 -20 -10
-47 -9 -27 1 -53 -2 -60 -7 -7 -7 -14 -6 -19 2 -5 8 -3 9 6 4 9 -5 11 -4 6 3
-5 8 -13 9 -25 2 -10 -5 -21 -7 -24 -3 -9 8 -131 8 -145 -1 -7 -4 -12 -2 -12
3 0 6 -5 11 -11 11 -5 0 -7 -5 -3 -12 4 -7 3 -8 -5 -4 -21 14 -103 17 -95 4 4
-7 3 -8 -5 -4 -19 12 -135 15 -149 3 -10 -8 -12 -7 -10 3 2 7 -3 15 -11 18 -9
3 -11 0 -6 -8 4 -7 -3 -5 -17 4 -14 9 -28 13 -32 9 -4 -4 -4 0 0 10 6 15 -4
22 -28 18 -4 0 -5 6 -1 15 3 8 2 14 -3 13 -18 -4 -44 14 -45 30 0 9 -3 11 -5
4 -4 -8 -17 -1 -38 20 -18 18 -31 35 -29 39 2 5 -4 8 -14 8 -15 0 -16 2 -3 10
13 8 12 10 -3 10 -10 0 -22 11 -27 25 -5 14 -14 25 -20 25 -6 0 -8 5 -4 12 5
8 2 9 -12 4 -10 -4 -16 -4 -12 -1 9 10 -24 45 -35 38 -6 -3 -7 -1 -3 5 3 6 0
17 -8 25 -8 8 -12 18 -8 23 4 5 -2 2 -13 -6 -11 -8 -17 -11 -13 -6 9 10 -23
47 -35 39 -5 -3 -6 4 -2 16 5 16 3 20 -9 15 -9 -3 -16 -1 -16 6 0 6 -5 8 -10
5 -6 -4 -10 -3 -9 2 4 21 -2 33 -15 33 -8 0 -18 5 -22 12 -5 7 -2 9 7 4 8 -4
3 2 -10 13 -12 12 -28 18 -34 14 -5 -3 -7 -1 -3 5 3 6 -3 17 -14 25 -11 7 -17
17 -13 20 3 4 1 7 -5 7 -13 0 -62 44 -62 56 0 11 -41 39 -52 36 -4 -1 -5 5 -2
13 4 8 1 15 -6 15 -6 0 -8 5 -4 12 4 6 3 8 -3 5 -6 -4 -19 0 -29 8 -18 15 -18
15 1 9 12 -4 5 5 -15 20 -19 15 -34 29 -32 32 6 9 -40 44 -50 38 -4 -3 -8 -2
-7 3 5 28 -2 42 -18 36 -12 -5 -15 -2 -10 10 4 10 2 16 -6 14 -7 -1 -11 3 -10
9 2 8 -6 10 -20 6 -20 -5 -20 -4 -8 11 7 9 9 17 4 17 -14 0 -54 36 -47 43 3 3
-4 8 -15 12 -12 3 -19 11 -16 16 4 5 1 9 -4 9 -6 0 -11 7 -11 15 0 8 -6 14
-12 12 -7 -1 -12 6 -12 15 1 10 -1 17 -5 16 -3 0 -13 0 -21 1 -13 1 -13 2 0
11 13 8 12 10 -4 10 -11 0 -16 5 -13 14 3 8 -1 13 -9 12 -8 0 -22 12 -32 29
-23 39 -38 55 -46 48 -3 -4 -6 4 -6 16 0 12 -3 20 -7 18 -5 -2 -18 6 -30 19
-15 15 -18 24 -10 27 7 3 4 6 -5 6 -10 1 -18 4 -18 9 0 16 -52 62 -63 55 -7
-4 -5 2 3 12 9 11 10 16 3 11 -8 -4 -13 -1 -13 9 0 8 -7 18 -16 22 -8 3 -13
12 -10 19 3 8 -4 18 -15 24 -11 6 -17 15 -14 20 3 5 -5 19 -17 32 -13 13 -23
30 -23 38 0 8 -6 14 -13 12 -8 -1 -11 2 -8 7 4 5 1 13 -5 16 -5 4 -8 13 -5 21
3 8 -1 14 -9 14 -7 0 -17 5 -21 12 -4 7 -3 8 4 4 7 -4 12 -2 12 3 0 6 -4 11
-10 11 -5 0 -10 7 -10 15 0 8 -5 15 -11 15 -5 0 -7 5 -4 10 3 6 2 10 -4 10 -6
0 -7 7 -4 17 4 10 2 14 -4 10 -6 -4 -14 0 -17 9 -4 10 -2 13 7 9 6 -4 3 1 -8
10 -11 9 -19 18 -17 20 8 15 0 36 -12 32 -10 -4 -12 0 -8 15 4 16 2 19 -8 13
-10 -6 -12 -4 -7 8 4 11 1 17 -8 17 -8 0 -14 3 -13 8 2 12 -15 47 -30 58 -9 7
-12 16 -7 24 5 8 4 11 -2 7 -6 -4 -15 5 -21 18 -7 14 -16 25 -21 25 -5 0 -12
7 -15 16 -4 10 -1 13 7 9 6 -3 2 2 -10 11 -13 9 -23 23 -23 30 0 8 -5 14 -11
14 -5 0 -7 5 -4 10 3 6 1 10 -5 10 -6 0 -8 5 -5 10 3 6 -2 10 -11 10 -10 0
-14 3 -11 6 4 4 -3 15 -14 25 -12 10 -18 23 -14 29 3 6 3 10 -2 9 -20 -3 -25
2 -14 15 9 11 9 16 0 22 -8 5 -9 3 -4 -6 5 -9 4 -11 -4 -6 -7 4 -10 13 -8 19
2 7 -3 18 -12 25 -12 10 -13 12 -1 6 12 -7 13 -5 3 8 -7 8 -10 18 -6 21 3 4 1
7 -5 7 -6 0 -12 10 -14 23 -2 12 -9 21 -15 20 -6 -1 -9 6 -6 17 3 12 0 20 -7
20 -7 0 -10 8 -7 20 3 10 0 18 -5 17 -6 -1 -12 9 -14 23 -3 14 -12 31 -21 37
-9 7 -12 13 -5 13 7 0 3 9 -9 21 -11 11 -18 27 -15 34 3 8 -4 17 -16 21 -14 4
-17 9 -9 13 9 6 7 12 -5 22 -15 12 -17 12 -9 0 5 -9 4 -12 -3 -7 -6 3 -9 15
-7 26 2 13 -2 20 -11 20 -8 0 -12 5 -9 10 3 6 1 10 -6 10 -7 0 -10 3 -6 6 3 4
-1 13 -9 21 -8 8 -12 19 -9 24 4 5 0 9 -8 9 -10 0 -13 7 -10 20 3 11 0 20 -6
20 -6 0 -11 6 -11 14 0 8 -5 16 -10 18 -6 2 -12 13 -13 25 0 12 -4 20 -7 18
-7 -4 -24 17 -28 35 -2 7 -11 20 -20 28 -11 9 -12 11 -2 6 12 -7 13 -5 3 8 -7
8 -10 18 -6 21 3 4 -4 7 -16 7 -18 0 -21 4 -16 19 4 14 0 23 -15 31 -11 6 -19
14 -16 18 5 9 -20 32 -28 25 -3 -4 -6 -1 -6 6 0 16 -26 42 -34 34 -3 -4 -6 1
-6 10 0 9 -5 17 -11 17 -5 0 -7 5 -3 12 4 7 3 8 -4 4 -7 -4 -22 4 -36 18 -13
14 -29 26 -35 26 -7 0 -9 5 -6 10 3 6 -1 10 -9 10 -9 0 -16 7 -16 16 0 10 -6
14 -15 10 -8 -3 -14 -2 -13 2 5 15 -24 52 -40 52 -15 0 -15 2 -2 10 12 8 10
10 -10 10 -18 0 -21 3 -11 9 11 7 9 10 -8 16 -11 3 -21 13 -21 21 0 8 -4 12
-10 9 -5 -3 -10 1 -10 10 0 9 -4 13 -10 10 -5 -3 -10 0 -10 8 0 8 -8 21 -17
28 -17 13 -17 13 -3 -6 14 -19 14 -19 -2 -6 -10 7 -18 18 -18 23 0 5 -10 20
-22 33 -13 13 -38 40 -56 60 -19 19 -32 35 -29 35 3 0 -15 21 -39 46 -24 25
-42 50 -39 55 4 5 -3 9 -14 9 -12 0 -21 5 -21 11 0 6 -18 26 -39 46 -26 23
-38 40 -34 51 5 12 2 14 -11 9 -9 -4 -15 -3 -11 2 3 5 1 12 -5 16 -6 4 -7 11
-4 17 4 7 2 8 -4 4 -7 -4 -12 -2 -12 4 0 7 -6 10 -14 7 -10 -4 -14 0 -11 14 2
10 -1 19 -6 19 -6 0 -17 7 -25 15 -9 8 -13 15 -9 15 3 0 -9 15 -27 34 -18 18
-37 31 -43 28 -5 -3 -7 -2 -3 3 11 12 -11 45 -30 45 -15 0 -15 2 -2 10 13 8
12 10 -4 10 -13 0 -16 5 -12 17 4 10 4 14 0 11 -8 -8 -34 16 -34 31 0 5 -11
22 -26 36 -14 14 -22 30 -19 35 3 6 2 10 -3 10 -5 0 -9 6 -10 13 -2 22 -7 42
-16 56 -6 10 -5 12 2 7 8 -5 10 -2 6 8 -3 9 -11 13 -17 9 -6 -4 -7 -1 -1 8 12
20 14 39 3 39 -6 0 -9 8 -7 18 2 9 -2 16 -8 15 -7 -1 -10 6 -7 16 3 13 -2 23
-16 30 -12 7 -21 19 -21 29 -1 21 -25 54 -33 45 -4 -3 -7 1 -7 11 0 9 -5 14
-10 11 -6 -4 -10 -3 -9 2 2 4 -4 21 -11 36 -10 20 -16 24 -22 15 -5 -9 -8 -6
-8 10 0 12 -3 22 -8 22 -4 0 -13 14 -21 31 -7 16 -16 28 -19 25 -2 -3 1 -14 9
-23 13 -16 12 -17 -3 -4 -10 7 -18 17 -18 22 0 13 -38 49 -52 49 -9 0 -8 4 2
10 13 8 12 10 -3 10 -10 0 -20 7 -23 15 -4 8 -10 12 -15 9 -5 -3 -9 1 -9 9 0
8 -8 21 -17 28 -17 13 -17 12 -4 -6 8 -11 1 -6 -15 11 -16 16 -37 33 -46 37
-10 3 -18 11 -18 17 0 6 -4 8 -10 5 -5 -3 -10 1 -10 10 0 11 -5 15 -14 12 -9
-4 -17 2 -21 14 -4 10 -13 19 -21 19 -8 0 -12 5 -9 10 3 6 0 10 -8 10 -8 0
-18 7 -21 16 -3 9 -11 12 -18 8 -7 -4 -10 -4 -6 1 8 9 -15 35 -31 35 -6 0 -11
5 -11 10 0 6 -8 10 -17 10 -9 0 -14 3 -10 6 8 8 -18 34 -33 34 -6 0 -8 5 -5
10 3 6 1 10 -5 10 -6 0 -18 7 -27 15 -8 8 -20 12 -26 8 -7 -3 -9 -3 -5 1 8 10
-23 47 -33 40 -4 -2 -6 4 -4 15 3 15 -1 19 -16 16 -11 -2 -17 0 -15 4 7 10
-30 41 -40 33 -4 -4 -4 -1 0 6 4 7 1 15 -8 18 -9 3 -16 12 -16 19 0 8 -9 17
-20 20 -18 6 -25 17 -21 38 1 5 -3 6 -8 3 -5 -3 -11 1 -15 9 -3 8 -13 15 -23
15 -15 0 -16 2 -3 10 11 7 12 10 2 10 -7 0 -20 7 -28 15 -9 8 -12 15 -8 15 4
0 -3 8 -14 19 -12 10 -19 21 -15 25 3 3 -3 6 -15 6 -12 0 -21 3 -21 8 3 20 -3
32 -17 32 -8 0 -13 4 -10 9 3 5 -1 11 -9 15 -8 3 -15 13 -15 21 0 9 -4 13 -10
10 -5 -3 -7 0 -4 8 3 8 -2 17 -10 20 -9 4 -16 14 -16 22 0 10 -5 13 -12 9 -8
-5 -7 0 2 11 9 11 10 16 3 11 -8 -4 -13 -2 -13 8 0 8 -6 17 -12 19 -10 4 -9 6
1 6 10 1 7 7 -7 20 -12 10 -19 21 -15 25 3 3 1 6 -6 6 -7 0 -9 5 -6 10 3 6 1
10 -5 10 -6 0 -9 4 -6 9 3 4 -1 17 -8 27 -10 13 -11 23 -4 31 8 9 7 13 -3 13
-11 0 -11 2 1 10 11 7 11 10 2 10 -7 0 -10 5 -7 10 3 6 1 10 -4 10 -6 0 -11 5
-11 11 0 5 6 7 13 4 6 -4 3 1 -7 9 -11 9 -16 16 -11 16 4 0 0 9 -11 21 -16 17
-16 22 -4 29 13 8 12 10 -2 10 -12 0 -15 5 -11 17 4 9 2 14 -3 11 -5 -3 -9 14
-9 38 0 24 4 44 10 44 5 0 2 5 -8 11 -17 10 -17 12 -2 29 11 12 13 20 5 25 -8
5 -7 11 2 23 9 11 9 14 1 9 -9 -6 -11 1 -8 22 2 17 6 35 10 41 3 5 2 10 -3 10
-5 0 -9 7 -9 15 0 8 5 11 10 8 6 -4 8 5 5 21 -3 14 -2 26 3 26 4 0 11 9 14 21
5 13 12 18 22 14 12 -4 13 -3 5 8 -9 11 -4 23 24 55 20 23 32 42 27 42 -4 0 1
8 12 17 l20 16 -20 -7 c-19 -6 -19 -5 -2 8 9 7 17 16 17 20 0 3 9 15 20 26 12
12 18 25 15 30 -4 6 2 10 12 10 15 0 16 2 3 10 -13 9 -8 14 12 12 3 -1 9 5 12
14 3 8 2 13 -3 10 -5 -4 -4 5 2 18 7 13 16 22 20 19 5 -3 4 4 -2 16 -10 17 -9
22 3 27 8 3 13 16 11 29 -1 14 2 22 8 18 6 -4 8 4 5 21 -3 14 -1 26 4 26 5 0
7 4 4 9 -4 5 0 12 6 14 10 4 9 6 -1 6 -11 1 -11 4 0 18 12 15 12 16 -1 8 -12
-6 -12 -5 -3 5 6 7 9 19 6 28 -4 10 -2 13 5 8 9 -5 9 -1 2 18 -5 14 -6 26 -2
26 4 0 0 5 -8 10 -8 5 -10 10 -4 10 7 0 14 7 18 15 3 8 2 14 -2 12 -4 -1 -7 0
-8 3 -1 3 -11 25 -23 49 -12 23 -18 40 -12 37 7 -4 8 -1 5 8 -3 9 -11 16 -16
16 -6 0 -4 8 3 17 10 11 10 14 2 9 -9 -5 -13 0 -13 13 0 12 -4 21 -8 21 -4 0
-9 10 -9 22 -1 13 -7 24 -13 26 -5 2 -8 8 -4 13 3 5 0 9 -6 9 -6 0 -8 5 -5 10
3 6 1 10 -4 10 -6 0 -11 7 -11 15 0 8 -4 15 -10 15 -5 0 -10 7 -10 15 0 8 -5
15 -11 15 -5 0 -7 5 -3 12 4 6 3 8 -3 5 -12 -7 -44 28 -35 39 4 4 -1 4 -10 1
-12 -4 -18 -1 -18 9 0 8 -4 12 -10 9 -5 -3 -10 -1 -10 6 0 7 -3 10 -6 6 -3 -3
-17 5 -31 19 -13 13 -29 21 -35 18 -7 -4 -8 -2 -4 4 4 7 2 12 -4 12 -6 0 -8 5
-4 12 4 6 3 8 -4 4 -6 -3 -14 -1 -19 6 -4 7 -14 13 -20 14 -38 3 -44 5 -39 12
2 4 -5 9 -17 9 -12 1 -23 7 -25 13 -2 5 -8 7 -14 4 -6 -4 -14 0 -19 7 -6 10
-9 11 -9 2 0 -9 -6 -7 -18 5 -11 9 -17 22 -14 27 3 6 -1 5 -7 -1 -10 -9 -20
-8 -42 3 -29 15 -31 33 -3 33 8 0 12 4 9 10 -3 5 0 7 8 4 8 -3 21 2 30 11 11
10 18 12 23 4 5 -8 8 -8 13 0 8 12 44 23 74 23 11 -1 15 4 10 11 -5 9 -3 9 8
0 11 -9 18 -8 33 3 10 7 23 11 28 8 5 -3 15 0 23 6 12 10 15 10 15 -1 0 -10 3
-10 8 -3 4 6 21 11 39 10 20 -1 28 3 23 9 -5 6 1 10 16 10 13 0 24 -4 24 -10
0 -5 4 -4 8 2 4 7 19 15 32 17 14 2 25 5 25 6 0 1 13 3 28 5 16 2 39 11 52 19
17 11 25 12 34 3 8 -8 11 -8 11 2 0 8 6 11 15 7 8 -3 15 0 15 7 0 8 4 6 10 -3
8 -12 10 -12 10 -1 0 8 7 11 20 8 14 -4 20 0 20 11 0 14 2 14 9 3 6 -9 11 -10
15 -2 4 6 12 9 17 6 5 -4 9 -1 9 6 0 6 8 9 20 6 11 -3 22 -1 25 3 3 5 14 7 25
5 12 -2 18 0 15 4 -3 5 2 12 11 15 10 4 13 2 8 -7 -6 -9 -5 -9 7 0 9 7 26 14
40 17 13 2 23 9 21 15 -2 9 3 9 17 1 26 -13 34 -13 25 2 -5 8 0 9 14 6 14 -4
20 -2 15 5 -4 6 0 8 10 4 10 -3 17 -2 17 3 0 5 7 7 15 4 8 -4 15 -1 15 5 0 6
9 11 21 11 11 0 18 4 15 8 -2 4 7 8 22 7 15 0 33 6 40 15 8 8 11 10 8 4 -3 -7
9 -5 29 4 19 9 35 19 35 23 0 3 11 5 25 4 14 -2 23 0 20 5 -5 7 42 25 58 22 4
-1 7 4 7 10 0 7 5 5 11 -4 5 -10 15 -18 22 -18 7 0 6 4 -3 10 -8 5 -12 12 -8
15 4 4 14 -5 23 -19 10 -14 21 -23 26 -20 5 3 9 -2 9 -11 0 -9 5 -13 10 -10 6
3 10 -1 10 -10 0 -9 5 -13 10 -10 6 3 10 1 10 -5 0 -6 5 -8 10 -5 6 3 10 -2
10 -11 0 -10 3 -15 6 -11 3 3 28 -17 55 -44 27 -27 49 -44 49 -37 0 8 5 6 11
-5 6 -9 14 -15 20 -12 5 4 6 -2 2 -11 -4 -12 -3 -15 6 -10 7 5 15 -3 22 -23 6
-17 15 -31 19 -31 5 0 7 -9 5 -20 -2 -11 -1 -19 3 -19 20 3 32 -2 27 -11 -3
-5 -1 -10 6 -10 7 0 9 -3 6 -6 -4 -4 3 -15 15 -26 12 -10 19 -21 15 -24 -8 -8
16 -33 26 -27 4 2 7 -3 7 -12 0 -9 5 -13 10 -10 6 3 10 0 10 -8 0 -14 27 -32
43 -29 4 1 6 -1 6 -5 -3 -21 2 -33 14 -31 6 2 11 -3 9 -11 -3 -12 -1 -12 15
-1 10 8 15 11 11 6 -7 -8 -1 -18 34 -56 9 -10 14 -21 11 -24 -3 -3 2 -8 11
-12 9 -3 13 -10 10 -15 -3 -5 0 -9 5 -9 6 0 11 -7 11 -15 0 -8 5 -15 10 -15 6
0 10 -6 10 -14 0 -8 7 -17 16 -20 9 -4 14 -13 10 -21 -3 -8 -2 -15 2 -15 5 0
17 -7 28 -16 10 -8 12 -12 4 -8 -12 6 -12 4 1 -12 9 -10 20 -29 23 -41 4 -13
12 -23 17 -23 5 0 8 -3 8 -7 -3 -20 2 -34 11 -28 6 3 7 -1 4 -9 -3 -9 -1 -16
5 -16 6 0 11 -9 11 -20 0 -11 5 -20 10 -20 6 0 10 -6 10 -14 0 -7 7 -19 15
-26 8 -7 12 -16 9 -21 -3 -5 0 -9 6 -9 6 0 9 -4 5 -9 -3 -6 1 -14 10 -18 8 -5
16 -21 17 -36 1 -15 6 -27 11 -27 4 0 6 -4 2 -9 -3 -5 -1 -12 5 -16 6 -4 8
-11 5 -16 -4 -5 -2 -9 3 -9 6 0 13 -7 16 -16 6 -15 4 -15 -11 -3 -16 12 -16
11 0 -8 11 -12 16 -27 12 -32 -3 -6 -2 -11 3 -11 12 0 9 -81 -3 -100 -5 -8 -4
-11 2 -7 6 4 10 -12 12 -40 1 -26 7 -51 14 -55 6 -4 7 -8 2 -8 -6 0 -11 -9
-12 -20 -1 -13 2 -18 10 -13 9 5 9 3 0 -8 -10 -12 -10 -18 0 -29 10 -10 9 -11
-2 -5 -10 6 -13 4 -9 -7 4 -8 2 -21 -2 -28 -5 -8 -4 -22 1 -31 6 -12 5 -19 -3
-21 -13 -5 -19 -48 -6 -48 4 0 -1 -16 -12 -35 -11 -20 -20 -45 -20 -56 0 -11
-4 -18 -9 -14 -6 3 -8 -3 -6 -15 2 -11 0 -22 -5 -25 -4 -3 -6 -15 -2 -27 3
-13 1 -19 -5 -15 -7 4 -10 -5 -8 -23 1 -17 -1 -30 -5 -30 -5 0 -7 -8 -5 -17 1
-10 -5 -27 -14 -37 -9 -11 -10 -16 -3 -12 7 4 12 1 12 -9 0 -9 -4 -13 -10 -10
-5 3 -7 0 -4 -8 3 -8 0 -18 -6 -22 -9 -6 -9 -10 1 -16 11 -7 11 -9 1 -9 -7 0
-10 -4 -7 -10 3 -5 1 -10 -6 -10 -8 0 -7 -5 2 -17 12 -14 12 -16 0 -9 -9 6
-12 5 -9 -5 3 -8 1 -22 -4 -31 -6 -13 -5 -18 4 -18 9 0 9 -3 -2 -10 -12 -8
-12 -10 -1 -10 11 0 11 -3 1 -15 -9 -11 -9 -15 -1 -15 7 0 9 -5 5 -12 -9 -15
-12 -58 -3 -58 3 0 6 -7 6 -15 0 -8 -5 -15 -11 -15 -5 0 -2 -6 9 -13 11 -9 14
-16 8 -20 -12 -8 -6 -76 9 -94 6 -7 5 -14 -1 -18 -7 -4 -6 -13 3 -28 8 -12 12
-30 11 -40 -2 -10 1 -14 8 -10 6 4 8 0 4 -10 -3 -10 -2 -17 4 -17 6 0 7 -4 4
-10 -3 -5 -1 -10 6 -10 7 0 9 -3 6 -7 -4 -3 0 -17 8 -30 9 -13 13 -29 9 -35
-5 -8 -2 -9 9 -5 9 3 16 3 16 -1 -3 -21 2 -32 13 -26 6 4 8 3 5 -3 -8 -13 27
-55 38 -45 5 4 5 -2 1 -12 -5 -14 -3 -16 6 -8 15 11 42 -10 30 -24 -4 -4 -2
-4 5 0 6 3 14 2 18 -4 4 -6 11 -8 16 -5 8 5 13 -7 11 -26 -1 -3 5 -6 13 -6 8
0 12 5 9 11 -3 6 1 3 9 -6 8 -10 17 -15 20 -11 4 3 7 1 7 -6 0 -8 6 -11 16 -7
8 3 13 2 10 -3 -3 -5 1 -12 10 -15 10 -4 13 -2 8 6 -4 6 3 4 15 -5 13 -8 30
-13 39 -10 9 4 13 2 9 -4 -8 -12 18 -12 29 0 12 12 26 8 18 -5 -6 -10 -5 -10
7 -2 8 7 30 10 49 9 19 -2 42 1 51 6 10 5 20 4 27 -3 8 -8 12 -9 12 -1 0 6 7
14 16 17 10 4 13 2 8 -7 -6 -9 -5 -9 8 0 8 7 19 9 23 5 5 -4 6 -2 3 3 -3 6 7
23 23 38 16 16 29 25 29 22 0 -3 12 7 26 22 15 15 23 21 18 13 -5 -9 -1 -7 9
3 9 11 17 15 17 11 0 -5 7 -1 14 9 8 10 18 19 23 20 4 1 7 6 5 10 -1 5 2 6 8
2 5 -3 13 1 16 9 3 8 14 18 25 21 11 4 16 11 13 17 -5 7 -1 9 9 5 9 -3 16 -3
16 1 -3 21 2 31 15 26 8 -3 16 3 19 16 4 14 10 19 18 14 9 -5 10 -2 6 9 -4 12
-2 14 10 10 11 -4 14 -2 9 5 -4 7 -2 12 4 12 6 0 9 4 6 9 -3 5 2 15 11 22 14
12 16 12 8 -1 -5 -9 -5 -12 1 -7 5 5 10 12 10 15 6 27 18 52 25 52 5 0 9 7 9
15 0 9 7 18 15 21 12 5 13 9 4 20 -10 12 -8 13 6 7 14 -5 17 -3 12 10 -4 10
-2 17 4 17 6 0 8 7 5 16 -3 8 -2 13 2 10 4 -3 14 4 21 16 10 16 10 19 -1 12
-11 -6 -11 -5 0 9 8 9 10 22 6 28 -4 7 -3 9 3 6 6 -4 17 1 24 10 10 12 10 14
2 9 -19 -11 -16 5 5 21 9 8 11 12 5 8 -14 -7 -17 4 -7 29 3 9 10 14 14 11 5
-3 6 5 2 17 -3 14 -1 19 6 14 7 -4 8 3 2 24 -6 20 -5 28 1 24 7 -4 9 5 7 22
-2 17 3 35 12 42 8 8 9 11 3 7 -16 -8 -17 11 -2 21 8 4 7 9 -2 15 -10 6 -10 9
-2 9 7 0 10 7 6 17 -5 12 -3 14 8 8 11 -6 11 -5 3 4 -14 16 -6 53 10 44 6 -3
2 3 -8 15 -12 14 -15 22 -6 22 6 0 10 6 7 14 -3 8 -1 17 6 20 9 3 8 5 -1 5 -7
1 -10 6 -7 11 3 6 1 10 -5 10 -6 0 -3 12 7 27 10 15 12 24 6 20 -16 -10 -16
-2 -3 23 7 13 7 21 0 25 -8 5 -7 11 1 21 9 11 9 14 -1 14 -8 0 -10 3 -7 7 4 3
2 12 -5 20 -9 11 -7 12 8 6 17 -6 18 -5 5 11 -12 14 -12 19 -2 26 11 6 11 9 0
13 -12 5 -12 7 0 15 9 6 10 11 2 13 -6 2 -12 29 -12 61 -1 40 -5 55 -13 51 -7
-4 -6 -1 1 8 10 12 10 18 0 29 -10 10 -9 11 3 5 13 -8 13 -7 1 8 -11 14 -11
17 0 17 9 0 10 3 4 8 -12 8 -13 16 -17 71 -2 23 -5 41 -8 41 -3 0 -6 19 -7 42
-1 22 -7 46 -13 52 -5 5 -10 15 -10 20 0 6 5 4 10 -4 5 -8 10 -10 10 -4 0 6
-3 14 -7 17 -4 4 -8 26 -11 49 -2 24 -8 48 -12 54 -6 6 -5 15 2 22 9 9 9 12 0
12 -7 0 -11 3 -11 8 4 21 -2 32 -13 26 -8 -5 -7 0 2 11 17 20 17 25 1 34 -5 4
-11 23 -13 43 -1 20 -5 35 -9 32 -4 -2 -10 3 -13 12 -4 10 -2 13 7 8 9 -6 9
-5 0 8 -7 8 -9 19 -5 23 4 5 1 5 -5 1 -9 -5 -13 0 -13 13 0 12 1 23 3 26 1 2
-7 11 -18 19 -11 9 -15 16 -10 16 6 0 4 4 -3 9 -8 5 -15 20 -15 34 -1 14 -5
23 -8 21 -11 -7 -29 22 -31 49 -1 14 -4 24 -6 22 -9 -8 -63 77 -58 90 2 7 -4
15 -16 18 -13 4 -17 10 -12 18 4 7 1 17 -8 23 -8 6 -20 21 -27 34 -7 13 -17
20 -24 15 -7 -4 -6 1 2 11 12 14 12 17 1 14 -8 -2 -14 4 -15 12 0 8 -5 15 -12
15 -6 0 -15 4 -20 9 -5 5 -3 6 5 2 20 -12 13 8 -8 22 -11 7 -20 17 -20 23 0 7
-10 20 -22 30 -11 11 -18 19 -14 19 4 0 -4 10 -17 23 -14 12 -26 27 -27 32 -1
6 -6 9 -11 7 -5 -1 -9 7 -9 19 0 11 -4 18 -8 15 -5 -3 -15 4 -23 15 -23 34
-41 55 -33 40 5 -9 3 -12 -4 -7 -7 4 -12 14 -12 22 0 8 -5 14 -11 14 -6 0 -8
7 -5 16 3 8 2 13 -3 10 -5 -3 -17 5 -27 19 -10 13 -21 22 -26 19 -4 -3 -8 2
-8 10 0 9 -5 16 -11 16 -5 0 -8 4 -5 8 3 5 -3 14 -14 22 -10 7 -16 20 -12 28
3 10 1 13 -6 8 -7 -4 -15 -1 -18 8 -3 9 -11 13 -17 9 -6 -4 -8 0 -4 10 3 10 2
17 -3 17 -6 0 -10 7 -10 15 0 8 -4 15 -8 15 -5 0 -19 10 -32 23 -14 12 -29 20
-35 19 -5 -2 -7 -1 -3 3 4 4 -9 22 -28 40 -18 18 -34 37 -34 44 0 6 -7 11 -16
11 -8 0 -12 5 -9 10 3 6 1 10 -5 10 -15 0 -41 26 -33 34 4 3 -1 6 -11 6 -9 0
-14 5 -11 10 4 6 3 10 -2 9 -20 -3 -34 2 -28 11 3 6 -1 10 -9 10 -9 0 -16 5
-16 11 0 5 -4 8 -9 5 -4 -3 -19 3 -31 14 -12 11 -27 17 -31 14 -5 -3 -9 0 -9
5 0 6 -7 11 -15 11 -9 0 -19 8 -22 18 -4 9 -11 20 -17 24 -7 5 -7 8 2 8 7 0
10 5 7 10 -4 6 -3 10 2 9 20 -3 25 2 14 15 -10 12 -8 13 10 9 17 -5 20 -3 14
7 -6 10 -4 12 11 6 10 -4 15 -4 12 0 -8 7 16 34 30 34 5 0 15 7 22 15 7 8 21
15 32 15 10 0 17 4 14 9 -3 5 1 12 10 15 10 4 13 2 8 -7 -5 -8 -2 -7 9 2 13
10 20 11 30 2 10 -8 17 -7 25 1 8 8 13 7 18 -5 3 -9 10 -14 15 -11 6 3 17 0
26 -8 12 -9 15 -9 9 0 -4 6 -2 12 3 12 6 0 11 -4 11 -8 0 -11 31 -9 49 3 10 5
12 4 7 -3 -8 -13 6 -17 18 -5 11 11 46 10 46 -1 0 -6 5 -4 10 4 5 8 10 10 10
4 0 -6 7 -11 15 -12 8 -1 22 -3 30 -4 8 -1 15 -6 15 -11 0 -5 9 -7 20 -4 14 4
20 0 20 -11 0 -10 3 -13 8 -7 9 12 44 16 36 4 -3 -5 10 -9 28 -9 19 0 40 -6
47 -12 11 -10 13 -10 7 0 -4 6 -2 12 3 12 6 0 11 -4 11 -9 0 -6 9 -8 20 -6 11
2 20 0 20 -5 0 -5 7 -7 15 -4 9 4 15 0 15 -7 0 -11 2 -11 10 1 7 12 12 12 22
2 6 -6 32 -12 56 -12 30 0 41 -3 36 -12 -5 -7 -3 -8 7 -2 21 13 39 14 39 1 0
-8 3 -8 8 -2 10 14 32 17 32 4 0 -8 4 -8 14 0 12 10 19 8 35 -8 13 -13 21 -16
21 -8 0 7 4 6 10 -4 6 -10 20 -15 35 -14 14 2 25 -1 25 -6 0 -5 6 -9 14 -9 10
0 13 -8 11 -21 -3 -12 -2 -19 2 -16 9 10 34 -43 26 -56 -4 -6 0 -8 11 -4 10 4
15 3 11 -3 -3 -6 1 -13 9 -16 9 -3 13 -10 11 -15 -3 -5 5 -18 19 -30 14 -12
23 -26 20 -31 -3 -5 -2 -8 3 -7 23 4 35 -2 29 -17 -3 -8 -2 -12 4 -9 6 3 10 1
10 -4 0 -6 7 -11 16 -11 8 0 13 -4 9 -9 -3 -5 11 -15 30 -21 19 -6 35 -16 35
-21 0 -5 8 -9 18 -9 9 0 25 -7 35 -15 11 -7 27 -12 38 -10 10 2 19 0 19 -5 0
-4 8 -7 18 -5 9 1 23 -2 30 -8 6 -5 12 -5 12 0 0 5 9 9 20 9 11 0 20 -4 20 -9
0 -5 6 -5 13 2 10 8 17 7 25 -1 9 -9 12 -9 12 0 0 7 5 12 11 12 5 0 8 -4 5 -8
-3 -5 1 -9 8 -9 8 0 12 6 9 14 -4 10 1 10 23 -2 16 -8 30 -11 32 -5 2 5 9 7
16 4 8 -3 21 2 30 11 12 12 16 13 16 3 0 -10 3 -9 10 2 5 8 10 12 10 8 0 -4
15 -1 34 7 18 8 37 11 41 7 5 -4 5 -1 1 6 -6 10 8 18 17 10 1 -2 17 8 36 22
31 21 34 22 27 5 -7 -19 -6 -19 11 -3 52 49 63 57 63 48 0 -6 6 -5 14 2 8 7
13 15 11 18 -2 3 3 10 10 17 11 10 15 10 18 0 3 -7 6 -1 7 13 1 14 4 19 7 13
3 -9 15 -3 35 17 16 17 34 28 39 24 5 -3 9 2 9 11 0 11 5 15 15 11 8 -3 15 -1
15 5 0 6 6 7 13 3 9 -6 9 -5 0 7 -11 14 -9 16 17 14 16 -1 27 2 25 5 -3 4 3
14 12 21 14 12 16 12 8 -1 -4 -8 11 5 33 29 23 24 42 41 42 37 0 -4 14 8 31
26 18 18 29 27 25 21 -5 -9 -2 -11 8 -7 9 3 13 10 10 15 -3 5 2 9 10 9 9 0 16
7 16 16 0 8 5 12 10 9 9 -6 14 8 11 28 0 4 4 7 10 7 6 0 9 7 5 15 -3 8 -1 15
5 15 6 0 8 7 5 16 -3 8 -2 12 4 9 9 -6 14 8 11 28 0 4 4 7 10 7 6 0 9 7 5 15
-3 8 -2 15 3 15 4 0 5 14 3 31 -4 25 -2 30 9 24 11 -7 11 -5 0 9 -13 15 -13
19 0 27 8 5 9 9 3 9 -12 0 -12 29 1 49 5 9 4 12 -2 8 -12 -8 -11 63 2 83 5 8
4 11 -3 6 -7 -4 -10 9 -8 43 1 27 -1 48 -5 45 -4 -2 -9 3 -13 11 -3 8 0 15 7
15 8 0 8 3 -2 9 -7 5 -10 14 -7 20 4 6 2 11 -5 11 -8 0 -8 4 1 15 10 12 9 16
-3 21 -9 3 -18 12 -21 20 -3 9 -1 12 4 9 6 -3 10 -1 10 4 0 6 -5 11 -11 11 -5
0 -7 5 -4 10 3 6 1 10 -5 10 -6 0 -8 5 -5 10 3 6 1 10 -5 10 -6 0 -10 6 -8 14
2 8 -6 22 -17 31 -11 9 -14 14 -7 10 20 -10 14 4 -13 29 -13 13 -22 26 -18 29
3 4 1 7 -6 7 -7 0 -9 5 -6 10 3 6 -1 10 -10 10 -10 0 -13 5 -9 12 4 6 3 8 -4
4 -6 -3 -22 5 -36 19 -15 15 -26 20 -26 13 -1 -7 -6 -3 -13 9 -7 12 -16 23
-22 25 -5 2 -9 6 -8 10 2 5 -1 8 -7 8 -5 0 -23 14 -39 31 -17 17 -35 28 -40
24 -6 -3 -11 2 -12 12 0 10 -3 13 -6 6 -3 -10 -9 -9 -20 3 -13 13 -17 13 -24
2 -7 -10 -9 -10 -9 2 0 12 -2 13 -9 1 -7 -11 -9 -11 -14 0 -3 9 -6 9 -6 2 -1
-8 -10 -9 -31 -3 -19 5 -30 5 -30 -1 0 -6 -4 -7 -10 -4 -5 3 -10 0 -10 -7 0
-8 -3 -9 -8 -3 -11 16 -46 19 -36 3 4 -7 -2 -4 -14 6 -16 14 -22 15 -22 6 0
-11 -3 -11 -12 -2 -9 9 -16 8 -32 -6 -11 -10 -16 -11 -11 -3 9 16 -8 8 -39
-18 -10 -9 -20 -15 -22 -13 -9 5 -25 1 -20 -6 2 -4 -7 -12 -20 -19 -18 -8 -23
-8 -18 0 3 7 -1 5 -8 -4 -7 -9 -25 -16 -38 -14 -14 1 -35 -4 -47 -12 -13 -7
-23 -11 -23 -8 0 3 -13 -1 -30 -10 -16 -9 -30 -13 -30 -9 0 4 -7 1 -16 -7 -13
-10 -17 -10 -25 2 -7 12 -9 12 -10 -1 -1 -8 -1 -18 -1 -21 1 -3 -10 -4 -23 -1
-15 2 -25 0 -25 -7 0 -7 -4 -9 -10 -6 -5 3 -10 1 -10 -5 0 -7 -6 -10 -12 -7
-7 2 -19 -3 -26 -12 -8 -9 -11 -11 -8 -5 3 7 -9 5 -29 -4 -19 -9 -35 -20 -35
-24 0 -4 -7 -5 -15 -2 -8 4 -17 -1 -21 -9 -3 -9 -12 -13 -20 -10 -8 3 -14 0
-14 -6 0 -6 -9 -11 -20 -11 -11 0 -20 -5 -20 -11 0 -5 -4 -7 -10 -4 -5 3 -10
1 -10 -5 0 -6 -4 -8 -10 -5 -5 3 -10 1 -10 -6 0 -7 -2 -10 -6 -7 -3 3 -21 2
-42 -3 -24 -5 -41 -4 -51 4 -11 9 -13 9 -8 0 4 -6 3 -14 -3 -18 -5 -3 -10 -1
-10 5 0 6 -8 10 -17 8 -10 -1 -24 1 -32 6 -10 7 -12 5 -6 -4 10 -16 -36 -3
-47 14 -6 8 -8 7 -8 -1 0 -7 -7 -13 -15 -13 -8 0 -15 6 -15 13 0 8 -4 7 -10
-3 -7 -12 -10 -12 -10 -1 0 8 -6 11 -16 7 -9 -3 -12 -2 -9 5 4 6 1 9 -6 8 -13
-2 -26 2 -76 21 -15 6 -23 5 -27 -3 -2 -7 -5 -5 -5 5 -1 11 -8 15 -26 14 -14
-2 -22 1 -18 6 3 6 -3 7 -17 3 -14 -4 -20 -3 -16 3 3 5 -1 13 -10 16 -9 4 -13
2 -8 -5 3 -6 -5 -3 -19 6 -15 9 -30 14 -35 11 -11 -6 -23 40 -13 50 3 3 6 11
6 17 1 7 6 11 12 10 6 -1 9 6 5 19 -3 14 -1 19 6 15 6 -5 9 2 7 18 -1 14 2 25
8 25 6 0 7 3 4 7 -4 3 -2 12 4 20 6 7 9 13 5 13 -4 0 0 13 8 29 12 22 12 31 3
41 -9 10 -9 11 1 6 7 -4 12 -1 12 8 0 9 5 16 11 16 8 0 7 6 -2 17 -10 11 -10
14 -1 9 8 -5 12 0 12 18 0 14 5 28 11 31 6 4 8 12 6 19 -2 6 -1 20 3 31 4 11
3 26 -4 34 -8 11 -8 13 0 8 7 -4 14 0 18 8 3 8 1 15 -4 15 -6 0 -6 9 0 25 7
17 6 25 -1 25 -8 0 -8 5 1 15 6 8 9 18 6 24 -3 5 1 11 9 15 8 3 15 11 15 18 0
9 -3 9 -11 -2 -9 -13 -10 -13 -6 0 4 16 29 16 64 -2 17 -8 26 -8 38 2 8 7 15
8 15 3 0 -5 11 -10 26 -11 16 -1 23 2 18 9 -3 6 5 3 20 -6 15 -10 26 -13 26
-6 0 6 7 11 15 11 8 0 15 -4 15 -10 0 -5 7 -7 15 -4 8 4 15 1 15 -6 0 -6 5 -8
10 -5 6 4 8 10 5 15 -3 4 4 6 15 3 11 -3 20 -10 21 -17 0 -6 4 -2 9 9 6 14 9
15 9 5 1 -9 10 -16 21 -17 11 -1 18 2 16 6 -3 4 1 8 9 8 8 0 15 -5 15 -10 0
-5 7 -4 15 3 12 10 15 10 15 0 0 -9 4 -9 17 1 14 12 16 12 9 0 -6 -9 -5 -12 5
-9 8 3 22 1 33 -4 13 -7 16 -7 12 1 -4 6 -3 11 3 11 5 0 12 -6 14 -12 4 -9 6
-9 6 -1 1 12 38 7 58 -9 7 -6 13 -4 16 4 4 8 8 9 14 3 11 -13 83 -18 83 -5 0
6 3 9 8 9 18 -3 33 2 28 9 -3 5 1 9 9 9 8 0 11 -5 7 -11 -3 -6 5 -4 18 4 14 9
35 15 48 14 12 -1 22 2 22 5 0 4 20 7 45 7 25 0 45 -4 45 -10 0 -5 7 -1 15 10
8 11 14 14 15 6 0 -10 3 -10 14 0 8 7 12 16 10 20 -2 3 6 4 18 1 13 -3 20 -3
16 2 -8 9 15 35 31 35 6 0 11 5 11 11 0 15 26 39 34 32 3 -4 6 4 6 16 0 12 4
20 9 17 5 -3 12 6 15 20 4 15 10 24 13 21 6 -7 53 58 53 73 0 5 9 15 19 22 14
10 18 21 14 41 -3 15 -9 27 -14 27 -5 0 -9 8 -9 18 0 10 -5 23 -12 30 -9 9 -9
12 2 12 11 0 11 3 2 12 -16 16 -15 31 1 22 8 -6 8 -3 -1 9 -8 9 -11 21 -7 27
3 5 2 10 -4 10 -6 0 -8 7 -5 15 4 8 1 15 -5 15 -6 0 -11 5 -11 11 0 5 5 7 11
3 8 -5 8 -1 0 14 -7 14 -8 23 -1 27 6 4 8 11 5 16 -4 5 2 6 12 2 16 -6 16 -5
4 11 -19 23 -22 56 -4 49 7 -3 16 2 19 11 3 9 11 13 16 10 6 -4 14 0 19 7 4 8
14 14 21 14 7 1 12 6 11 13 -2 7 6 12 16 12 11 0 22 6 24 13 4 10 6 10 6 0 1
-7 6 -13 12 -13 5 0 8 3 5 8 -2 4 3 16 11 27 16 20 16 20 9 0 -6 -19 -5 -19 8
-2 15 20 30 23 21 5 -4 -7 1 -4 9 6 9 11 16 16 16 12 0 -5 7 -3 15 4 8 7 15 9
15 6 0 -4 7 0 16 8 8 9 19 14 24 11 4 -3 10 2 14 10 3 8 16 15 28 15 17 0 19
3 10 9 -11 7 -9 13 10 31 12 13 16 20 8 15 -8 -4 4 11 26 32 47 45 68 79 59
93 -3 6 -1 10 5 10 6 0 8 5 5 10 -3 6 1 10 10 10 9 0 13 5 10 11 -4 6 2 17 14
25 12 8 21 20 21 25 0 6 7 17 15 26 8 8 12 19 9 25 -4 6 -1 16 7 22 8 6 14 17
15 24 3 39 5 43 16 36 8 -5 9 -2 5 9 -4 12 -1 17 11 17 15 0 15 2 2 10 -12 8
-12 10 5 10 17 0 17 2 5 10 -11 7 -11 10 -2 10 7 0 10 5 7 10 -3 6 -2 10 3 10
5 0 9 6 9 13 0 6 4 21 9 31 5 14 4 17 -4 12 -7 -4 -12 -2 -12 3 0 6 7 11 15
11 8 0 15 5 15 11 0 5 -4 8 -9 5 -5 -3 -6 15 -3 41 4 34 2 44 -7 39 -14 -9
-11 16 4 26 6 5 5 8 -4 8 -8 0 -11 6 -7 16 4 10 2 13 -6 8 -8 -5 -9 -2 -5 9 3
10 2 17 -3 17 -5 0 -9 10 -8 23 1 29 -5 50 -17 59 -6 5 -5 8 3 8 10 0 9 4 -3
16 -13 14 -14 19 -3 25 11 7 11 9 0 9 -7 0 -10 5 -6 11 3 6 0 15 -7 20 -9 6
-10 9 -2 9 6 0 11 13 11 30 -1 17 -5 30 -10 30 -4 0 -8 7 -8 16 0 8 4 13 9 10
5 -4 4 5 -2 19 -7 14 -15 25 -19 25 -5 0 -8 9 -8 20 0 11 -5 20 -11 20 -5 0
-8 4 -4 9 3 5 -6 22 -20 37 -14 15 -25 33 -25 41 0 8 -4 11 -10 8 -9 -6 -12 1
-9 22 0 3 -6 10 -15 15 -9 5 -13 14 -10 20 4 6 3 9 -2 6 -12 -7 -75 58 -66 68
4 4 0 5 -9 2 -10 -4 -23 3 -34 18 -10 13 -24 24 -31 24 -8 0 -14 5 -14 11 0 5
-4 8 -9 4 -5 -3 -15 1 -23 8 -7 8 -25 17 -40 20 -15 4 -33 14 -41 22 -8 8 -17
11 -21 8 -3 -4 -6 -1 -6 6 0 7 -5 9 -12 5 -6 -4 -17 1 -25 11 -7 11 -13 15
-13 10 0 -4 -10 0 -22 11 -12 10 -18 13 -14 7 4 -7 2 -13 -3 -13 -6 0 -11 6
-11 13 0 8 -4 7 -10 -3 -8 -13 -10 -12 -10 3 0 10 -4 15 -10 12 -5 -3 -10 0
-10 7 0 9 -3 9 -10 -2 -8 -12 -10 -12 -10 5 0 11 -4 16 -8 10 -10 -15 -35 -18
-26 -4 5 9 2 10 -9 6 -9 -3 -23 1 -32 9 -8 9 -15 11 -15 4 0 -7 -7 -7 -22 1
-13 7 -24 12 -25 11 -11 -7 -33 0 -27 9 4 8 0 8 -15 0 -16 -9 -21 -9 -21 0 0
6 -7 9 -15 6 -8 -4 -17 -1 -21 5 -4 7 -9 6 -15 -3 -7 -12 -9 -12 -9 -1 0 8 -6
12 -12 9 -7 -2 -21 0 -30 5 -11 5 -18 5 -18 -1 0 -10 -32 -7 -52 5 -7 5 -8 3
-3 -5 6 -10 3 -11 -13 -2 -25 13 -103 10 -115 -4 -6 -7 -10 -6 -13 1 -3 7 -14
10 -24 7 -11 -3 -17 -9 -14 -14 3 -5 -2 -6 -11 -3 -8 4 -21 1 -29 -5 -7 -6
-17 -7 -21 -3 -5 4 -5 1 -1 -5 4 -7 2 -13 -4 -13 -6 0 -8 -5 -4 -12 5 -8 0 -7
-11 2 -15 12 -17 12 -10 1 6 -11 4 -13 -8 -8 -10 4 -16 2 -14 -5 1 -7 -3 -12
-9 -13 -6 0 -18 -8 -28 -17 -10 -10 -22 -18 -27 -18 -6 0 -8 -4 -5 -9 3 -5 -6
-12 -21 -16 -19 -4 -23 -9 -14 -15 10 -6 9 -10 -5 -19 -11 -6 -15 -11 -11 -11
4 0 -1 -10 -13 -22 -11 -12 -20 -27 -20 -34 0 -6 -7 -15 -16 -18 -8 -3 -13
-10 -9 -15 3 -6 0 -13 -7 -18 -7 -4 -20 -21 -28 -37 -8 -15 -22 -31 -32 -35
-16 -6 -18 -9 -18 -32 0 -5 -4 -7 -10 -4 -5 3 -10 1 -10 -5 0 -6 -4 -8 -10 -5
-6 4 -7 -1 -3 -11 5 -13 3 -15 -7 -9 -10 6 -12 4 -7 -9 4 -10 3 -15 -3 -11 -6
3 -10 1 -10 -5 0 -6 -4 -8 -10 -5 -5 3 -10 -1 -10 -10 0 -9 -4 -14 -9 -11 -10
7 -62 -50 -53 -59 3 -3 -1 -3 -10 0 -11 4 -20 0 -27 -13 -6 -11 -20 -22 -31
-25 -11 -3 -18 -2 -15 2 2 4 -16 5 -41 1 -24 -4 -47 -3 -50 2 -3 4 -11 5 -17
1 -23 -14 -74 -13 -87 2 -7 8 -16 12 -21 9 -5 -3 -9 -1 -9 4 0 6 -10 8 -22 4
-16 -4 -19 -2 -13 9 7 11 5 11 -10 -1 -11 -9 -16 -10 -11 -2 4 7 2 12 -7 12
-8 0 -18 7 -21 16 -5 13 -9 14 -21 4 -12 -10 -15 -9 -15 4 0 9 -6 16 -13 16
-15 0 -58 46 -51 53 3 3 -13 4 -35 4 -27 -1 -41 2 -41 11 0 6 -9 12 -20 12
-11 0 -20 4 -20 10 0 12 -22 9 -32 -5 -5 -6 -8 -5 -8 4 0 11 -3 11 -15 1 -12
-10 -16 -9 -21 5 -5 13 -9 14 -15 3 -6 -9 -9 -10 -9 -1 0 7 -7 10 -15 7 -9 -4
-15 0 -15 7 0 9 -3 10 -8 4 -4 -5 -15 -11 -25 -11 -15 -2 -16 1 -6 15 6 9 1 5
-13 -9 -36 -37 -55 -36 -49 3 0 4 -6 7 -14 7 -8 0 -15 4 -15 10 0 5 -6 9 -12
7 -7 -1 -12 4 -11 11 2 6 -2 12 -9 12 -6 0 -8 3 -5 7 4 3 1 13 -6 21 -9 13 -9
14 1 8 6 -4 12 -3 12 2 0 5 10 9 23 8 13 -1 21 4 19 12 -2 10 2 10 17 2 16 -8
22 -6 31 10 6 11 15 18 20 15 4 -3 16 2 24 11 12 11 16 12 16 2 0 -8 4 -7 11
4 6 12 19 16 39 14 16 -2 27 1 24 5 -3 5 0 9 5 9 6 0 11 -5 11 -12 0 -6 6 -3
14 7 8 11 20 16 29 12 12 -4 14 -2 10 10 -5 13 -1 15 20 11 15 -3 27 -1 27 5
0 6 3 7 7 4 3 -4 17 0 30 8 13 9 29 13 36 8 7 -4 5 2 -3 12 -9 11 -10 16 -3
11 19 -11 54 -16 48 -7 -8 14 32 20 46 7 9 -8 10 -8 5 2 -4 7 -1 12 8 12 8 0
17 6 19 13 4 8 6 8 6 0 1 -6 10 -9 21 -6 11 3 17 10 13 16 -4 6 0 8 9 5 17 -7
50 26 40 38 -4 5 2 2 12 -6 11 -8 17 -10 13 -3 -4 6 -3 14 3 18 5 3 10 2 10
-4 0 -6 7 -8 15 -5 8 4 12 10 9 15 -3 5 2 6 11 3 8 -4 23 0 32 7 14 12 16 12
8 -1 -7 -12 -6 -13 7 -3 8 7 18 10 21 6 4 -3 7 -1 7 6 0 7 4 10 9 6 5 -3 12
-1 16 4 3 5 14 8 25 6 12 -2 18 0 15 6 -4 5 -1 9 5 9 6 0 9 3 6 8 -2 4 9 8 25
8 17 1 38 12 50 25 11 13 17 17 13 9 -7 -12 -5 -13 8 -3 8 7 18 11 21 8 4 -3
5 -2 3 1 -7 10 18 33 28 26 5 -3 7 2 3 10 -4 12 0 15 18 14 18 -2 22 1 20 16
-2 10 0 16 5 13 5 -3 14 3 19 14 6 11 20 23 31 26 11 4 18 9 16 13 -2 4 9 20
25 35 16 16 29 25 29 22 0 -7 25 20 56 60 8 11 13 13 9 5 -7 -16 7 0 34 39 8
11 18 18 23 15 4 -3 8 0 8 5 0 19 4 26 27 47 12 12 20 24 16 27 -3 4 -1 7 6 7
7 0 9 5 5 12 -5 8 -2 9 12 4 10 -4 15 -4 12 0 -8 7 64 76 78 74 3 -1 16 10 30
25 13 14 27 24 32 22 8 -6 33 19 26 26 -3 2 9 10 26 16 18 6 29 15 25 21 -4 6
-3 10 2 9 22 -4 43 2 38 11 -3 6 1 10 9 10 9 0 16 5 16 12 0 6 3 8 7 5 3 -4
13 2 21 14 8 11 20 18 28 15 8 -3 14 1 14 9 0 13 26 21 53 16 5 -1 6 3 3 8 -5
8 21 22 49 25 19 3 35 17 30 27 -3 5 1 6 9 3 10 -4 18 1 22 11 5 13 9 14 15 3
7 -11 9 -11 9 1 0 16 29 40 48 41 18 0 43 26 34 35 -4 5 1 5 11 2 9 -4 17 -2
17 4 0 6 5 7 10 4 6 -3 10 1 10 9 0 9 5 16 11 16 5 0 7 -6 4 -12 -4 -7 1 -4 9
6 9 11 16 17 16 13 0 -5 6 -2 14 5 8 7 12 16 9 20 -2 4 2 5 9 3 8 -3 29 8 48
25 18 16 40 30 47 30 7 0 13 5 13 11 0 5 4 8 9 4 6 -3 14 2 19 10 4 9 18 17
30 18 17 1 19 4 9 16 -9 12 -9 13 1 7 7 -4 12 -2 12 4 0 7 7 9 16 6 8 -3 12
-2 9 4 -3 5 4 14 15 20 11 6 20 18 20 28 0 15 2 15 10 2 9 -13 14 -7 11 13 0
4 6 7 14 7 9 0 32 16 51 35 19 20 40 32 46 29 7 -4 8 -2 4 4 -4 7 -2 12 3 12
6 0 11 8 12 18 0 9 3 12 6 5 3 -10 7 -10 18 0 7 7 10 16 7 21 -3 5 2 6 12 3 9
-4 15 -3 12 2 -3 4 12 23 34 42 22 19 40 40 40 47 0 6 6 12 14 12 8 0 17 9 21
20 3 11 12 19 18 17 7 -1 11 4 10 11 -2 6 2 12 8 12 12 0 49 38 49 50 0 4 9
10 20 13 13 3 18 10 14 21 -4 11 -1 16 11 16 9 0 14 3 12 8 -6 10 30 42 39 34
4 -4 4 -2 1 5 -4 6 0 18 9 27 8 9 12 21 8 27 -4 7 -3 9 3 6 6 -4 16 -1 22 7 9
11 9 15 -1 19 -11 4 -10 6 0 6 7 1 10 6 6 13 -5 8 -2 9 11 4 15 -5 16 -4 6 8
-8 10 -9 16 -1 21 6 3 8 11 5 16 -4 5 0 9 7 9 9 0 9 3 -2 10 -12 8 -12 10 5
11 11 0 14 3 7 6 -6 2 -9 10 -5 16 11 18 14 49 5 43 -5 -3 -9 1 -9 9 0 8 4 12
7 10 12 -7 7 59 -5 68 -7 6 -6 10 2 13 7 3 9 12 6 20 -3 7 -9 12 -13 9 -5 -3
-6 5 -2 17 4 16 2 19 -8 13 -8 -5 -11 -4 -6 3 3 6 1 23 -6 39 -6 15 -12 35
-13 43 0 8 -7 14 -14 12 -8 -1 -10 2 -5 10 14 22 14 40 0 29 -10 -8 -11 -4 -8
19 3 18 0 30 -7 30 -6 0 -11 9 -11 20 0 12 -7 20 -17 20 -14 0 -15 2 -4 9 11
7 10 11 -5 20 -14 8 -15 11 -4 11 13 0 13 2 0 9 -8 6 -19 7 -25 4 -5 -3 -5 0
2 7 9 10 8 16 -3 27 -8 8 -12 19 -9 24 4 5 -1 9 -9 9 -9 0 -16 3 -15 8 3 17
-14 51 -22 46 -5 -3 -9 2 -9 10 0 9 -5 16 -11 16 -5 0 -7 5 -4 10 3 6 1 10 -5
10 -6 0 -18 7 -26 15 -11 10 -12 15 -3 15 6 0 -6 12 -27 26 -21 15 -40 30 -42
35 -2 5 -12 9 -23 9 -10 0 -19 5 -19 11 0 5 -4 8 -9 5 -5 -3 -12 1 -15 9 -4
12 -10 13 -23 6 -13 -6 -24 -5 -37 4 -10 8 -25 11 -34 8 -11 -5 -13 -3 -7 6 6
10 3 11 -14 2 -16 -9 -21 -9 -21 1 0 10 -2 10 -9 -1 -6 -10 -13 -11 -29 -2
-15 8 -23 8 -28 0 -4 -8 -9 -7 -15 2 -6 10 -9 10 -9 2z m-4020 -8627 c0 -2 -7
-9 -15 -16 -13 -11 -14 -10 -9 4 5 14 24 23 24 12z m-8508 -4078 c31 31 44 -7
15 -44 -12 -16 -16 -25 -9 -21 8 6 10 3 5 -10 -4 -10 -12 -22 -20 -26 -7 -4
-13 -16 -13 -27 0 -10 -7 -25 -15 -33 -8 -8 -11 -17 -8 -21 4 -3 1 -6 -5 -6
-7 0 -12 -9 -12 -20 0 -11 -7 -23 -15 -26 -8 -4 -12 -10 -9 -15 3 -5 0 -9 -6
-9 -7 0 -10 -7 -7 -14 4 -11 1 -13 -10 -9 -11 4 -14 2 -9 -5 4 -7 -5 -23 -21
-39 -15 -14 -22 -23 -14 -18 10 5 12 4 7 -3 -4 -7 -15 -12 -24 -12 -15 0 -15
-2 -2 -10 8 -5 10 -10 4 -10 -6 0 -17 -11 -24 -25 -7 -14 -20 -25 -27 -25 -8
0 -12 -4 -8 -10 3 -5 -6 -17 -20 -26 -13 -9 -22 -20 -19 -25 3 -5 -2 -6 -10
-3 -9 3 -16 1 -16 -5 0 -6 -7 -11 -16 -11 -10 0 -14 -6 -11 -14 4 -10 1 -13
-9 -9 -7 3 -14 -1 -14 -8 0 -7 -3 -9 -7 -6 -3 4 -12 -1 -20 -11 -10 -11 -12
-12 -8 -2 6 13 5 13 -7 0 -7 -9 -20 -15 -28 -15 -8 0 -18 -3 -21 -8 -3 -4 -5
12 -5 37 1 24 3 44 6 43 3 -1 23 15 44 35 22 20 44 34 50 31 5 -4 7 1 3 10 -5
13 -1 17 14 17 11 0 17 5 14 10 -3 6 -1 10 4 10 6 0 11 7 11 16 0 14 3 14 15
4 13 -11 14 -10 9 4 -3 9 -1 16 5 16 6 0 11 5 11 11 0 5 -4 7 -10 4 -6 -3 -7
1 -4 9 3 9 10 13 15 10 5 -3 10 0 10 5 1 6 2 17 3 24 1 6 7 11 14 10 6 -2 9 4
6 12 -4 9 0 23 7 32 8 9 9 14 3 10 -6 -3 -11 0 -11 8 0 8 4 12 9 9 7 -5 13 19
8 41 -1 5 7 15 16 22 13 10 14 13 4 13 -9 0 -5 6 8 16 14 10 21 22 17 31 -5
14 -3 14 12 2 9 -8 14 -9 10 -2 -4 6 -3 14 3 18 6 4 7 11 4 17 -4 7 -2 8 4 4
11 -6 55 28 46 37 -2 2 3 4 11 4 8 0 11 -5 8 -11 -3 -6 2 -3 13 6 13 13 20 15
26 5 6 -9 10 -9 20 1z"/>
<path d="M18955 16749 c-4 -6 -5 -12 -2 -15 2 -3 7 2 10 11 7 17 1 20 -8 4z"/>
</g>
</svg>
